<svg width="554" height="349" viewBox="0 0 554 349" fill="none" xmlns="http://www.w3.org/2000/svg">
<rect width="554" height="349" rx="3" fill="#343332"/>
<rect x="204.5" y="213.5" width="145" height="39" rx="2.5" stroke="white" stroke-opacity="0.6"/>
<path d="M243.568 228.528C241.552 228.528 239.968 230.052 239.968 232.836C239.968 235.656 241.456 237.18 243.616 237.18C244.744 237.18 245.608 236.688 246.112 236.172L245.368 235.212C244.888 235.572 244.396 235.908 243.688 235.908C242.5 235.908 241.636 235.02 241.636 232.836C241.636 230.592 242.524 229.752 243.664 229.752C244.24 229.752 244.732 229.956 245.2 230.352L246.016 229.404C245.332 228.84 244.66 228.528 243.568 228.528ZM251.985 237H253.581V228.708H251.985V232.032H249.045V228.708H247.449V237H249.045V233.292H251.985V237ZM260.539 228.708H255.715V237H260.575V235.812H257.311V233.376H259.975V232.2H257.311V229.884H260.359L260.539 228.708ZM265.426 228.528C263.41 228.528 261.826 230.052 261.826 232.836C261.826 235.656 263.314 237.18 265.474 237.18C266.602 237.18 267.466 236.688 267.97 236.172L267.226 235.212C266.746 235.572 266.254 235.908 265.546 235.908C264.358 235.908 263.494 235.02 263.494 232.836C263.494 230.592 264.382 229.752 265.522 229.752C266.098 229.752 266.59 229.956 267.058 230.352L267.874 229.404C267.19 228.84 266.518 228.528 265.426 228.528ZM270.903 228.708H269.307V237H270.903V228.708ZM275.547 228.708H273.831L270.963 232.572L273.891 237H275.775L272.679 232.464L275.547 228.708ZM281.67 228.708H280.074V237H281.67V228.708ZM289.133 228.708H282.977V229.968H285.221V237H286.817V229.968H288.965L289.133 228.708ZM296.757 228.528C294.537 228.528 293.121 230.136 293.121 232.86C293.121 235.632 294.537 237.18 296.757 237.18C298.977 237.18 300.381 235.584 300.381 232.848C300.381 230.076 298.977 228.528 296.757 228.528ZM296.745 229.74C298.005 229.74 298.701 230.628 298.701 232.848C298.701 235.092 297.993 235.968 296.745 235.968C295.545 235.968 294.789 235.092 294.789 232.86C294.789 230.628 295.521 229.74 296.745 229.74ZM308.137 228.708H306.529V234.204C306.529 235.368 306.061 235.944 305.041 235.944C304.021 235.944 303.553 235.368 303.553 234.204V228.708H301.957V234.288C301.957 235.992 302.989 237.18 305.041 237.18C307.069 237.18 308.137 235.956 308.137 234.288V228.708ZM315.485 228.708H309.329V229.968H311.573V237H313.169V229.968H315.317L315.485 228.708Z" fill="white" fill-opacity="0.6"/>
<path d="M199.556 128.28C193.86 128.28 189.572 132.44 189.572 139.864C189.572 147.448 193.636 151.544 199.716 151.544C202.788 151.544 205.188 150.168 206.66 148.696L204.292 145.624C203.012 146.616 201.732 147.48 199.972 147.48C197.028 147.48 195.044 145.208 195.044 139.864C195.044 134.424 197.06 132.152 199.876 132.152C201.412 132.152 202.66 132.728 203.844 133.752L206.404 130.712C204.58 129.176 202.532 128.28 199.556 128.28ZM217.337 128.28C211.097 128.28 207.353 132.664 207.353 139.896C207.353 147.288 211.097 151.544 217.337 151.544C223.609 151.544 227.321 147.16 227.321 139.896C227.321 132.504 223.609 128.28 217.337 128.28ZM217.369 132.12C220.345 132.12 221.881 134.296 221.881 139.896C221.881 145.528 220.345 147.704 217.369 147.704C214.457 147.704 212.857 145.528 212.857 139.896C212.857 134.296 214.425 132.12 217.369 132.12ZM235.75 128.824H230.502V151H243.846L244.422 146.84H235.75V128.824ZM252.156 128.824H246.908V151H260.252L260.828 146.84H252.156V128.824ZM276.914 128.824H263.314V151H276.914V147.224H268.562V141.56H275.378V137.88H268.562V132.568H276.37L276.914 128.824ZM289.118 128.28C283.422 128.28 279.134 132.44 279.134 139.864C279.134 147.448 283.198 151.544 289.278 151.544C292.35 151.544 294.75 150.168 296.222 148.696L293.854 145.624C292.574 146.616 291.294 147.48 289.534 147.48C286.59 147.48 284.606 145.208 284.606 139.864C284.606 134.424 286.622 132.152 289.438 132.152C290.974 132.152 292.222 132.728 293.406 133.752L295.966 130.712C294.142 129.176 292.094 128.28 289.118 128.28ZM313.764 128.824H296.772V132.856H302.5V151H307.748V132.856H313.22L313.764 128.824ZM321.094 128.824H315.846V151H321.094V128.824ZM334.181 128.28C327.941 128.28 324.197 132.664 324.197 139.896C324.197 147.288 327.941 151.544 334.181 151.544C340.453 151.544 344.165 147.16 344.165 139.896C344.165 132.504 340.453 128.28 334.181 128.28ZM334.213 132.12C337.189 132.12 338.725 134.296 338.725 139.896C338.725 145.528 337.189 147.704 334.213 147.704C331.301 147.704 329.701 145.528 329.701 139.896C329.701 134.296 331.269 132.12 334.213 132.12ZM364.434 128.824H359.73V137.784C359.73 141.336 360.178 144.248 360.434 146.04L353.874 128.824H347.346V151H352.05V142.872C352.05 138.776 351.602 135.832 351.346 133.816L357.746 151H364.434V128.824Z" fill="white"/>
<path d="M228.158 169.382C225.872 169.382 224.252 170.714 224.252 172.622C224.252 174.548 225.512 175.466 227.924 176.204C230.03 176.852 230.606 177.392 230.606 178.598C230.606 180.092 229.4 180.812 227.942 180.812C226.592 180.812 225.584 180.326 224.738 179.516L223.748 180.614C224.774 181.622 226.178 182.216 227.96 182.216C230.75 182.216 232.388 180.704 232.388 178.544C232.388 176.168 230.696 175.394 228.716 174.782C226.484 174.098 225.998 173.594 225.998 172.55C225.998 171.362 226.988 170.786 228.23 170.786C229.256 170.786 230.12 171.11 231.02 171.902L231.992 170.822C230.948 169.886 229.868 169.382 228.158 169.382ZM241.872 172.514H240.216V179.282C239.64 180.236 238.866 180.92 237.84 180.92C236.814 180.92 236.382 180.434 236.382 179.138V172.514H234.726V179.318C234.726 181.172 235.716 182.216 237.372 182.216C238.722 182.216 239.604 181.676 240.324 180.524L240.45 182H241.872V172.514ZM254.815 172.298C253.537 172.298 252.673 172.982 251.989 174.008C251.629 172.928 250.765 172.298 249.595 172.298C248.353 172.298 247.489 172.946 246.859 173.9L246.715 172.514H245.293V182H246.949V175.268C247.579 174.26 248.155 173.594 249.181 173.594C249.901 173.594 250.513 174.008 250.513 175.43V182H252.169V175.268C252.817 174.26 253.375 173.594 254.401 173.594C255.121 173.594 255.733 174.008 255.733 175.43V182H257.389V175.196C257.389 173.414 256.363 172.298 254.815 172.298ZM270.249 172.298C268.971 172.298 268.107 172.982 267.423 174.008C267.063 172.928 266.199 172.298 265.029 172.298C263.787 172.298 262.923 172.946 262.293 173.9L262.149 172.514H260.727V182H262.383V175.268C263.013 174.26 263.589 173.594 264.615 173.594C265.335 173.594 265.947 174.008 265.947 175.43V182H267.603V175.268C268.251 174.26 268.809 173.594 269.835 173.594C270.555 173.594 271.167 174.008 271.167 175.43V182H272.823V175.196C272.823 173.414 271.797 172.298 270.249 172.298ZM283.324 176.978C283.324 174.08 281.974 172.298 279.418 172.298C276.97 172.298 275.476 174.404 275.476 177.356C275.476 180.362 277.024 182.216 279.67 182.216C280.984 182.216 282.046 181.766 282.982 181.028L282.262 180.038C281.434 180.614 280.732 180.866 279.796 180.866C278.428 180.866 277.402 180.02 277.24 177.824H283.288C283.306 177.608 283.324 177.302 283.324 176.978ZM281.686 176.6H277.24C277.366 174.494 278.194 173.612 279.454 173.612C280.948 173.612 281.686 174.638 281.686 176.492V176.6ZM290.179 172.298C289.027 172.298 288.145 173.018 287.641 174.44L287.479 172.514H286.057V182H287.713V176.582C288.109 174.764 288.793 173.918 289.981 173.918C290.323 173.918 290.521 173.954 290.809 174.026L291.115 172.406C290.827 172.334 290.485 172.298 290.179 172.298ZM300.158 169.778C298.646 169.778 297.476 170.39 296.504 171.596L297.62 172.46C298.394 171.542 299.06 171.146 300.068 171.146C301.238 171.146 302.048 171.884 302.048 173.144C302.048 175.106 301.004 176.258 296.756 180.686V182H303.866L304.064 180.614H298.646C302.336 176.924 303.776 175.322 303.776 173.072C303.776 171.2 302.372 169.778 300.158 169.778ZM309.988 169.778C307.288 169.778 305.956 171.992 305.956 175.988C305.956 179.984 307.288 182.216 309.988 182.216C312.688 182.216 314.02 179.984 314.02 175.988C314.02 172.01 312.688 169.778 309.988 169.778ZM309.988 171.092C311.482 171.092 312.292 172.46 312.292 175.988C312.292 179.534 311.482 180.902 309.988 180.902C308.476 180.902 307.684 179.534 307.684 175.988C307.684 172.46 308.476 171.092 309.988 171.092ZM319.107 169.778C317.595 169.778 316.425 170.39 315.453 171.596L316.569 172.46C317.343 171.542 318.009 171.146 319.017 171.146C320.187 171.146 320.997 171.884 320.997 173.144C320.997 175.106 319.953 176.258 315.705 180.686V182H322.815L323.013 180.614H317.595C321.285 176.924 322.725 175.322 322.725 173.072C322.725 171.2 321.321 169.778 319.107 169.778ZM329.729 169.958H328.271L324.545 172.262L325.265 173.432L328.073 171.722V182H329.729V169.958Z" fill="white" fill-opacity="0.6"/>
</svg>
