<svg width="498" height="481" viewBox="0 0 498 481" fill="none" xmlns="http://www.w3.org/2000/svg">
<g filter="url(#filter0_d_4_15)">
<rect x="32" y="32" width="434" height="417" rx="3" fill="white"/>
</g>
<path d="M83.285 74.37C73.851 74.37 66.749 81.26 66.749 93.556C66.749 106.117 73.48 112.901 83.55 112.901C88.638 112.901 92.613 110.622 95.051 108.184L91.129 103.096C89.009 104.739 86.889 106.17 83.974 106.17C79.098 106.17 75.812 102.407 75.812 93.556C75.812 84.546 79.151 80.783 83.815 80.783C86.359 80.783 88.426 81.737 90.387 83.433L94.627 78.398C91.606 75.854 88.214 74.37 83.285 74.37ZM110.444 82.956C101.858 82.956 96.6638 88.892 96.6638 97.902C96.6638 107.389 101.911 112.901 110.444 112.901C119.03 112.901 124.224 106.965 124.224 97.955C124.224 88.468 118.977 82.956 110.444 82.956ZM110.497 89.104C113.836 89.104 115.532 91.701 115.532 97.955C115.532 104.05 113.836 106.753 110.444 106.753C107.052 106.753 105.356 104.156 105.356 97.902C105.356 91.807 107.052 89.104 110.497 89.104ZM145.688 82.956C142.19 82.956 139.487 84.387 137.102 87.196L136.519 83.857H129.205V112H137.579V92.761C139.063 90.429 140.6 89.104 142.455 89.104C144.098 89.104 145.105 89.899 145.105 92.867V112H153.479V91.436C153.479 86.083 150.564 82.956 145.688 82.956ZM174.634 105.322C173.521 106.011 172.567 106.276 171.613 106.276C169.864 106.276 168.963 105.322 168.963 102.619V89.687H174.528L175.376 83.857H168.963V76.808L160.589 77.762V83.857H156.614V89.687H160.589V102.725C160.589 109.35 163.61 112.848 169.811 112.901C172.355 112.901 175.323 112.159 177.496 110.675L174.634 105.322ZM202.551 103.838V92.92C202.551 86.401 199.106 82.956 190.944 82.956C187.764 82.956 183.842 83.698 180.344 85.023L182.199 90.535C185.061 89.581 187.817 89.051 189.619 89.051C193.011 89.051 194.336 90.058 194.336 93.397V94.616H191.474C182.994 94.616 178.33 97.955 178.33 104.103C178.33 109.244 181.881 112.901 187.499 112.901C190.785 112.901 193.965 111.788 195.926 108.714C197.251 111.47 199.477 112.477 202.763 112.742L204.512 107.283C203.187 106.806 202.551 106.011 202.551 103.838ZM189.937 106.912C187.817 106.912 186.651 105.587 186.651 103.361C186.651 100.552 188.506 99.227 192.269 99.227H194.336V104.262C193.329 105.905 191.792 106.912 189.937 106.912ZM221.464 82.956C213.037 82.956 207.684 89.21 207.684 98.167C207.684 107.071 212.984 112.901 221.623 112.901C225.492 112.901 228.513 111.629 231.057 109.562L227.294 104.209C225.439 105.64 224.061 106.276 222.047 106.276C218.708 106.276 216.482 104.368 216.482 98.114C216.482 91.807 218.549 89.369 222.153 89.369C224.061 89.369 225.704 90.005 227.453 91.436L231.057 86.401C228.407 84.122 225.386 82.956 221.464 82.956ZM249.476 105.322C248.363 106.011 247.409 106.276 246.455 106.276C244.706 106.276 243.805 105.322 243.805 102.619V89.687H249.37L250.218 83.857H243.805V76.808L235.431 77.762V83.857H231.456V89.687H235.431V102.725C235.431 109.35 238.452 112.848 244.653 112.901C247.197 112.901 250.165 112.159 252.338 110.675L249.476 105.322ZM291.401 83.857H283.027V103.414C281.808 105.534 280.218 106.7 278.469 106.7C276.72 106.7 275.766 105.852 275.766 102.99V83.857H267.392V104.05C267.392 109.509 269.989 112.901 275.236 112.901C278.946 112.901 281.702 111.417 283.769 108.449L284.14 112H291.401V83.857ZM307.898 82.956C300.743 82.956 296.397 86.719 296.397 91.542C296.397 95.888 299.1 98.75 304.718 100.34C309.753 101.771 310.654 102.354 310.654 104.315C310.654 105.958 309.064 106.912 306.467 106.912C303.817 106.912 301.22 105.799 299.153 104.103L295.019 108.714C297.775 111.205 301.856 112.901 306.732 112.901C313.781 112.901 319.24 109.456 319.24 103.626C319.24 98.591 316.113 96.259 310.601 94.669C305.566 93.185 304.771 92.549 304.771 91.065C304.771 89.793 305.937 88.945 308.481 88.945C310.601 88.945 312.933 89.74 315.106 91.171L318.233 86.401C315.636 84.281 311.979 82.956 307.898 82.956Z" fill="#222222"/>
<path d="M83.414 149.754H79.982L78.2 162.272L76.22 149.754H72.436L70.324 162.272L68.784 149.754H65.198L67.684 165H72.26L74.284 153.362L76.176 165H80.862L83.414 149.754ZM94.5109 158.928C94.5109 155.144 92.4649 152.944 89.1209 152.944C85.5789 152.944 83.6649 155.716 83.6649 159.214C83.6649 162.866 85.6449 165.374 89.5389 165.374C91.4309 165.374 92.9269 164.67 94.0929 163.746L92.6629 161.81C91.6509 162.514 90.8149 162.844 89.8689 162.844C88.4169 162.844 87.4269 162.272 87.2069 160.182H94.4449C94.4889 159.83 94.5109 159.302 94.5109 158.928ZM91.1009 158.092H87.2069C87.3609 156.002 88.0429 155.254 89.2089 155.254C90.5949 155.254 91.0789 156.354 91.1009 157.938V158.092ZM100.599 146.63L95.8026 149.534L96.7706 151.316L101.963 149.226L100.599 146.63ZM110.979 148.302V154.044C110.297 153.362 109.351 152.944 108.273 152.944C105.259 152.944 103.433 155.518 103.433 159.126C103.433 162.91 104.907 165.374 107.855 165.374C109.461 165.374 110.517 164.604 111.199 163.636L111.375 165H114.455V148.676L110.979 148.302ZM108.977 162.822C107.833 162.822 107.041 162.052 107.041 159.148C107.041 156.53 107.899 155.474 109.175 155.474C109.945 155.474 110.451 155.848 110.979 156.464V161.502C110.429 162.382 109.791 162.822 108.977 162.822ZM125.497 165.374C126.333 165.374 127.081 165.198 127.609 164.978L126.927 162.514C126.773 162.58 126.597 162.624 126.355 162.624C125.937 162.624 125.761 162.382 125.761 161.898V148.302L122.285 148.676V162.03C122.285 164.164 123.473 165.374 125.497 165.374ZM133.772 152.944C130.208 152.944 128.052 155.408 128.052 159.148C128.052 163.086 130.23 165.374 133.772 165.374C137.336 165.374 139.492 162.91 139.492 159.17C139.492 155.232 137.314 152.944 133.772 152.944ZM133.794 155.496C135.18 155.496 135.884 156.574 135.884 159.17C135.884 161.7 135.18 162.822 133.772 162.822C132.364 162.822 131.66 161.744 131.66 159.148C131.66 156.618 132.364 155.496 133.794 155.496ZM151.012 153.318H147.47L145.314 162.36L143.246 153.318H139.484L143.224 165H147.36L151.012 153.318ZM162.208 158.928C162.208 155.144 160.162 152.944 156.818 152.944C153.276 152.944 151.362 155.716 151.362 159.214C151.362 162.866 153.342 165.374 157.236 165.374C159.128 165.374 160.624 164.67 161.79 163.746L160.36 161.81C159.348 162.514 158.512 162.844 157.566 162.844C156.114 162.844 155.124 162.272 154.904 160.182H162.142C162.186 159.83 162.208 159.302 162.208 158.928ZM158.798 158.092H154.904C155.058 156.002 155.74 155.254 156.906 155.254C158.292 155.254 158.776 156.354 158.798 157.938V158.092ZM175.585 162.228C175.123 162.514 174.727 162.624 174.331 162.624C173.605 162.624 173.231 162.228 173.231 161.106V155.738H175.541L175.893 153.318H173.231V150.392L169.755 150.788V153.318H168.105V155.738H169.755V161.15C169.755 163.9 171.009 165.352 173.583 165.374C174.639 165.374 175.871 165.066 176.773 164.45L175.585 162.228ZM182.756 152.944C179.192 152.944 177.036 155.408 177.036 159.148C177.036 163.086 179.214 165.374 182.756 165.374C186.32 165.374 188.476 162.91 188.476 159.17C188.476 155.232 186.298 152.944 182.756 152.944ZM182.778 155.496C184.164 155.496 184.868 156.574 184.868 159.17C184.868 161.7 184.164 162.822 182.756 162.822C181.348 162.822 180.644 161.744 180.644 159.148C180.644 156.618 181.348 155.496 182.778 155.496ZM202.606 152.944C201.242 152.944 200.186 153.494 199.24 154.572V148.324L195.764 148.676V165H199.24V156.992C199.856 156.046 200.494 155.496 201.264 155.496C201.924 155.496 202.364 155.826 202.364 157.058V165H205.84V156.464C205.84 154.242 204.63 152.944 202.606 152.944ZM218.648 158.928C218.648 155.144 216.602 152.944 213.258 152.944C209.716 152.944 207.802 155.716 207.802 159.214C207.802 162.866 209.782 165.374 213.676 165.374C215.568 165.374 217.064 164.67 218.23 163.746L216.8 161.81C215.788 162.514 214.952 162.844 214.006 162.844C212.554 162.844 211.564 162.272 211.344 160.182H218.582C218.626 159.83 218.648 159.302 218.648 158.928ZM215.238 158.092H211.344C211.498 156.002 212.18 155.254 213.346 155.254C214.732 155.254 215.216 156.354 215.238 157.938V158.092ZM229.905 161.612V157.08C229.905 154.374 228.475 152.944 225.087 152.944C223.767 152.944 222.139 153.252 220.687 153.802L221.457 156.09C222.645 155.694 223.789 155.474 224.537 155.474C225.945 155.474 226.495 155.892 226.495 157.278V157.784H225.307C221.787 157.784 219.851 159.17 219.851 161.722C219.851 163.856 221.325 165.374 223.657 165.374C225.021 165.374 226.341 164.912 227.155 163.636C227.705 164.78 228.629 165.198 229.993 165.308L230.719 163.042C230.169 162.844 229.905 162.514 229.905 161.612ZM224.669 162.888C223.789 162.888 223.305 162.338 223.305 161.414C223.305 160.248 224.075 159.698 225.637 159.698H226.495V161.788C226.077 162.47 225.439 162.888 224.669 162.888ZM239.032 152.988C237.69 152.988 236.546 153.956 236.018 155.584L235.732 153.318H232.696V165H236.172V159.214C236.546 157.432 237.162 156.354 238.592 156.354C238.988 156.354 239.274 156.42 239.648 156.508L240.22 153.142C239.824 153.032 239.472 152.988 239.032 152.988ZM252.093 150.876C252.621 150.876 253.259 150.986 253.919 151.316L254.865 149.05C254.007 148.61 252.885 148.302 251.675 148.302C248.683 148.302 247.209 150.04 247.209 152.284V153.318H245.449V155.738H247.209V165H250.685V155.738H253.061L253.457 153.318H250.685V152.416C250.685 151.316 251.081 150.876 252.093 150.876ZM260.925 152.988C259.583 152.988 258.439 153.956 257.911 155.584L257.625 153.318H254.589V165H258.065V159.214C258.439 157.432 259.055 156.354 260.485 156.354C260.881 156.354 261.167 156.42 261.541 156.508L262.113 153.142C261.717 153.032 261.365 152.988 260.925 152.988ZM268.264 152.944C264.7 152.944 262.544 155.408 262.544 159.148C262.544 163.086 264.722 165.374 268.264 165.374C271.828 165.374 273.984 162.91 273.984 159.17C273.984 155.232 271.806 152.944 268.264 152.944ZM268.286 155.496C269.672 155.496 270.376 156.574 270.376 159.17C270.376 161.7 269.672 162.822 268.264 162.822C266.856 162.822 266.152 161.744 266.152 159.148C266.152 156.618 266.856 155.496 268.286 155.496ZM288.966 152.944C287.47 152.944 286.392 153.56 285.468 154.792C285.028 153.604 284.016 152.944 282.718 152.944C281.288 152.944 280.232 153.538 279.33 154.682L279.088 153.318H276.052V165H279.528V157.014C280.034 156.046 280.584 155.496 281.31 155.496C281.838 155.496 282.3 155.826 282.3 157.058V165H285.776V157.014C286.282 156.046 286.809 155.496 287.558 155.496C288.086 155.496 288.548 155.826 288.548 157.058V165H292.024V156.464C292.024 154.242 290.77 152.944 288.966 152.944ZM310.02 153.318H306.434L304.168 162.778L302.078 153.318H298.382L301.924 165H303.112C302.496 166.496 301.638 167.156 299.372 167.442L299.724 169.884C303.398 169.686 305.4 167.97 306.324 165.022L310.02 153.318ZM315.981 152.944C312.417 152.944 310.261 155.408 310.261 159.148C310.261 163.086 312.439 165.374 315.981 165.374C319.545 165.374 321.701 162.91 321.701 159.17C321.701 155.232 319.523 152.944 315.981 152.944ZM316.003 155.496C317.389 155.496 318.093 156.574 318.093 159.17C318.093 161.7 317.389 162.822 315.981 162.822C314.573 162.822 313.869 161.744 313.869 159.148C313.869 156.618 314.573 155.496 316.003 155.496ZM333.624 153.318H330.148V161.436C329.642 162.316 328.982 162.8 328.256 162.8C327.53 162.8 327.134 162.448 327.134 161.26V153.318H323.658V161.7C323.658 163.966 324.736 165.374 326.914 165.374C328.454 165.374 329.598 164.758 330.456 163.526L330.61 165H333.624V153.318Z" fill="#222222" fill-opacity="0.8"/>
<path d="M67.996 182.326H66.134V192H71.664L71.86 190.488H67.996V182.326ZM76.17 184.384C73.972 184.384 72.684 185.966 72.684 188.29C72.684 190.726 73.972 192.21 76.17 192.21C78.354 192.21 79.642 190.628 79.642 188.29C79.642 185.868 78.354 184.384 76.17 184.384ZM76.184 185.742C77.22 185.742 77.78 186.526 77.78 188.29C77.78 190.054 77.22 190.852 76.17 190.852C75.12 190.852 74.574 190.068 74.574 188.29C74.574 186.54 75.134 185.742 76.184 185.742ZM84.9898 184.398C84.1218 184.398 83.4078 184.986 83.0578 186.05L82.8898 184.594H81.3358V192H83.1278V188.052C83.4078 186.806 83.8558 186.148 84.7658 186.148C85.0178 186.148 85.1998 186.176 85.4238 186.232L85.7318 184.496C85.4938 184.426 85.2418 184.398 84.9898 184.398ZM92.7709 188.122C92.7709 185.784 91.5809 184.384 89.5229 184.384C87.4229 184.384 86.2329 186.092 86.2329 188.346C86.2329 190.684 87.4649 192.21 89.7609 192.21C90.8669 192.21 91.7769 191.804 92.5049 191.216L91.7489 190.194C91.1049 190.642 90.5729 190.852 89.9149 190.852C88.9349 190.852 88.2209 190.362 88.0949 188.85H92.7429C92.7569 188.654 92.7709 188.36 92.7709 188.122ZM91.0069 187.688H88.0809C88.1929 186.218 88.7109 185.658 89.5649 185.658C90.5729 185.658 91.0069 186.386 91.0069 187.604V187.688ZM102.287 184.384C101.307 184.384 100.635 184.86 100.075 185.63C99.7815 184.846 99.1375 184.384 98.2695 184.384C97.3315 184.384 96.6595 184.818 96.1275 185.56L95.9875 184.594H94.4335V192H96.2255V186.848C96.6175 186.162 97.0095 185.728 97.6255 185.728C98.0735 185.728 98.4375 185.994 98.4375 186.918V192H100.229V186.792L100.243 186.848C100.649 186.162 101.041 185.728 101.657 185.728C102.091 185.728 102.469 185.994 102.469 186.918V192H104.261V186.638C104.261 185.238 103.463 184.384 102.287 184.384ZM110.71 180.842C110.052 180.842 109.59 181.318 109.59 181.934C109.59 182.536 110.052 183.012 110.71 183.012C111.382 183.012 111.844 182.536 111.844 181.934C111.844 181.318 111.382 180.842 110.71 180.842ZM111.62 184.594H109.828V192H111.62V184.594ZM117.587 184.384C116.817 184.384 116.033 184.734 115.445 185.504L115.347 184.594H113.779V195.052L115.571 194.856V191.412C116.033 191.958 116.663 192.21 117.433 192.21C119.295 192.21 120.359 190.544 120.359 188.276C120.359 185.91 119.547 184.384 117.587 184.384ZM116.915 190.838C116.369 190.838 115.907 190.586 115.571 190.082V186.736C115.921 186.162 116.439 185.728 117.055 185.728C117.979 185.728 118.483 186.414 118.483 188.29C118.483 190.082 117.909 190.838 116.915 190.838ZM124.457 184.384C122.735 184.384 121.601 185.308 121.601 186.54C121.601 187.632 122.273 188.36 123.799 188.78C125.185 189.172 125.479 189.368 125.479 190.012C125.479 190.53 124.975 190.88 124.163 190.88C123.407 190.88 122.721 190.586 122.175 190.138L121.251 191.16C121.937 191.776 122.945 192.21 124.205 192.21C125.899 192.21 127.341 191.398 127.341 189.858C127.341 188.542 126.473 187.926 124.975 187.52C123.701 187.17 123.421 186.946 123.421 186.456C123.421 186.008 123.813 185.714 124.569 185.714C125.185 185.714 125.787 185.924 126.389 186.344L127.089 185.266C126.389 184.72 125.521 184.384 124.457 184.384ZM134.699 184.594H132.907V189.802C132.515 190.446 132.011 190.852 131.409 190.852C130.793 190.852 130.499 190.558 130.499 189.69V184.594H128.707V189.914C128.707 191.342 129.435 192.21 130.779 192.21C131.787 192.21 132.501 191.804 133.047 190.964L133.145 192H134.699V184.594ZM144.711 184.384C143.731 184.384 143.059 184.86 142.499 185.63C142.205 184.846 141.561 184.384 140.693 184.384C139.755 184.384 139.083 184.818 138.551 185.56L138.411 184.594H136.857V192H138.649V186.848C139.041 186.162 139.433 185.728 140.049 185.728C140.497 185.728 140.861 185.994 140.861 186.918V192H142.653V186.792L142.667 186.848C143.073 186.162 143.465 185.728 144.081 185.728C144.515 185.728 144.893 185.994 144.893 186.918V192H146.685V186.638C146.685 185.238 145.887 184.384 144.711 184.384ZM156.69 181.43V185.182C156.228 184.72 155.598 184.384 154.842 184.384C152.98 184.384 151.846 186.022 151.846 188.304C151.846 190.656 152.812 192.21 154.646 192.21C155.626 192.21 156.326 191.72 156.774 191.048L156.9 192H158.482V181.626L156.69 181.43ZM155.164 190.852C154.282 190.852 153.722 190.194 153.722 188.29C153.722 186.512 154.338 185.728 155.276 185.728C155.878 185.728 156.298 186.036 156.69 186.512V189.886C156.27 190.516 155.822 190.852 155.164 190.852ZM163.643 184.384C161.445 184.384 160.157 185.966 160.157 188.29C160.157 190.726 161.445 192.21 163.643 192.21C165.827 192.21 167.115 190.628 167.115 188.29C167.115 185.868 165.827 184.384 163.643 184.384ZM163.657 185.742C164.693 185.742 165.253 186.526 165.253 188.29C165.253 190.054 164.693 190.852 163.643 190.852C162.593 190.852 162.047 190.068 162.047 188.29C162.047 186.54 162.607 185.742 163.657 185.742ZM170.558 192.21C171.02 192.21 171.44 192.098 171.748 191.958L171.37 190.698C171.244 190.74 171.118 190.768 170.95 190.768C170.656 190.768 170.53 190.6 170.53 190.25V181.43L168.738 181.626V190.306C168.738 191.524 169.424 192.21 170.558 192.21ZM175.811 184.384C173.613 184.384 172.325 185.966 172.325 188.29C172.325 190.726 173.613 192.21 175.811 192.21C177.995 192.21 179.283 190.628 179.283 188.29C179.283 185.868 177.995 184.384 175.811 184.384ZM175.825 185.742C176.861 185.742 177.421 186.526 177.421 188.29C177.421 190.054 176.861 190.852 175.811 190.852C174.761 190.852 174.215 190.068 174.215 188.29C174.215 186.54 174.775 185.742 175.825 185.742ZM184.63 184.398C183.762 184.398 183.048 184.986 182.698 186.05L182.53 184.594H180.976V192H182.768V188.052C183.048 186.806 183.496 186.148 184.406 186.148C184.658 186.148 184.84 186.176 185.064 186.232L185.372 184.496C185.134 184.426 184.882 184.398 184.63 184.398ZM192.324 184.384C190.602 184.384 189.468 185.308 189.468 186.54C189.468 187.632 190.14 188.36 191.666 188.78C193.052 189.172 193.346 189.368 193.346 190.012C193.346 190.53 192.842 190.88 192.03 190.88C191.274 190.88 190.588 190.586 190.042 190.138L189.118 191.16C189.804 191.776 190.812 192.21 192.072 192.21C193.766 192.21 195.208 191.398 195.208 189.858C195.208 188.542 194.34 187.926 192.842 187.52C191.568 187.17 191.288 186.946 191.288 186.456C191.288 186.008 191.68 185.714 192.436 185.714C193.052 185.714 193.654 185.924 194.256 186.344L194.956 185.266C194.256 184.72 193.388 184.384 192.324 184.384ZM197.526 180.842C196.868 180.842 196.406 181.318 196.406 181.934C196.406 182.536 196.868 183.012 197.526 183.012C198.198 183.012 198.66 182.536 198.66 181.934C198.66 181.318 198.198 180.842 197.526 180.842ZM198.436 184.594H196.644V192H198.436V184.594ZM204.208 190.488C203.886 190.684 203.606 190.768 203.326 190.768C202.78 190.768 202.542 190.474 202.542 189.746V185.882H204.068L204.264 184.594H202.542V182.746L200.75 182.956V184.594H199.588V185.882H200.75V189.788C200.75 191.37 201.52 192.196 202.99 192.21C203.634 192.21 204.306 192.028 204.838 191.65L204.208 190.488ZM214.834 190.04V186.932C214.834 185.294 213.952 184.384 211.978 184.384C211.138 184.384 210.214 184.566 209.29 184.916L209.71 186.134C210.452 185.882 211.166 185.742 211.67 185.742C212.636 185.742 213.056 186.064 213.056 187.03V187.45H212.132C209.976 187.45 208.758 188.318 208.758 189.928C208.758 191.272 209.668 192.21 211.152 192.21C212.034 192.21 212.846 191.888 213.364 191.104C213.658 191.818 214.19 192.112 215.002 192.182L215.38 190.992C215.016 190.852 214.834 190.642 214.834 190.04ZM211.628 190.908C210.956 190.908 210.578 190.502 210.578 189.788C210.578 188.92 211.152 188.5 212.328 188.5H213.056V190.012C212.72 190.586 212.244 190.908 211.628 190.908ZM224.842 184.384C223.862 184.384 223.19 184.86 222.63 185.63C222.336 184.846 221.692 184.384 220.824 184.384C219.886 184.384 219.214 184.818 218.682 185.56L218.542 184.594H216.988V192H218.78V186.848C219.172 186.162 219.564 185.728 220.18 185.728C220.628 185.728 220.992 185.994 220.992 186.918V192H222.784V186.792L222.798 186.848C223.204 186.162 223.596 185.728 224.212 185.728C224.646 185.728 225.024 185.994 225.024 186.918V192H226.816V186.638C226.816 185.238 226.018 184.384 224.842 184.384ZM234.945 188.122C234.945 185.784 233.755 184.384 231.697 184.384C229.597 184.384 228.407 186.092 228.407 188.346C228.407 190.684 229.639 192.21 231.935 192.21C233.041 192.21 233.951 191.804 234.679 191.216L233.923 190.194C233.279 190.642 232.747 190.852 232.089 190.852C231.109 190.852 230.395 190.362 230.269 188.85H234.917C234.931 188.654 234.945 188.36 234.945 188.122ZM233.181 187.688H230.255C230.367 186.218 230.885 185.658 231.739 185.658C232.747 185.658 233.181 186.386 233.181 187.604V187.688ZM240.219 190.488C239.897 190.684 239.617 190.768 239.337 190.768C238.791 190.768 238.553 190.474 238.553 189.746V185.882H240.079L240.275 184.594H238.553V182.746L236.761 182.956V184.594H235.599V185.882H236.761V189.788C236.761 191.37 237.531 192.196 239.001 192.21C239.645 192.21 240.317 192.028 240.849 191.65L240.219 190.488ZM242.459 189.942C241.815 189.942 241.325 190.432 241.325 191.062C241.325 191.454 241.507 191.79 241.801 192L241.227 194.408H242.319L243.243 192.336C243.481 191.776 243.593 191.44 243.593 191.076C243.593 190.432 243.103 189.942 242.459 189.942ZM251.689 184.384C249.561 184.384 248.245 185.994 248.245 188.36C248.245 190.726 249.561 192.21 251.717 192.21C252.655 192.21 253.439 191.902 254.111 191.356L253.285 190.18C252.767 190.572 252.375 190.754 251.801 190.754C250.793 190.754 250.135 190.124 250.135 188.332C250.135 186.554 250.779 185.798 251.815 185.798C252.375 185.798 252.823 185.966 253.299 186.344L254.111 185.252C253.411 184.65 252.655 184.384 251.689 184.384ZM258.279 184.384C256.081 184.384 254.793 185.966 254.793 188.29C254.793 190.726 256.081 192.21 258.279 192.21C260.463 192.21 261.751 190.628 261.751 188.29C261.751 185.868 260.463 184.384 258.279 184.384ZM258.293 185.742C259.329 185.742 259.889 186.526 259.889 188.29C259.889 190.054 259.329 190.852 258.279 190.852C257.229 190.852 256.683 190.068 256.683 188.29C256.683 186.54 257.243 185.742 258.293 185.742ZM267.393 184.384C266.455 184.384 265.713 184.818 265.139 185.56L264.999 184.594H263.445V192H265.237V186.848C265.671 186.162 266.147 185.728 266.791 185.728C267.351 185.728 267.701 185.994 267.701 186.918V192H269.493V186.638C269.493 185.224 268.709 184.384 267.393 184.384ZM273.918 184.384C272.196 184.384 271.062 185.308 271.062 186.54C271.062 187.632 271.734 188.36 273.26 188.78C274.646 189.172 274.94 189.368 274.94 190.012C274.94 190.53 274.436 190.88 273.624 190.88C272.868 190.88 272.182 190.586 271.636 190.138L270.712 191.16C271.398 191.776 272.406 192.21 273.666 192.21C275.36 192.21 276.802 191.398 276.802 189.858C276.802 188.542 275.934 187.926 274.436 187.52C273.162 187.17 272.882 186.946 272.882 186.456C272.882 186.008 273.274 185.714 274.03 185.714C274.646 185.714 275.248 185.924 275.85 186.344L276.55 185.266C275.85 184.72 274.982 184.384 273.918 184.384ZM284.3 188.122C284.3 185.784 283.11 184.384 281.052 184.384C278.952 184.384 277.762 186.092 277.762 188.346C277.762 190.684 278.994 192.21 281.29 192.21C282.396 192.21 283.306 191.804 284.034 191.216L283.278 190.194C282.634 190.642 282.102 190.852 281.444 190.852C280.464 190.852 279.75 190.362 279.624 188.85H284.272C284.286 188.654 284.3 188.36 284.3 188.122ZM282.536 187.688H279.61C279.722 186.218 280.24 185.658 281.094 185.658C282.102 185.658 282.536 186.386 282.536 187.604V187.688ZM288.931 184.384C286.803 184.384 285.487 185.994 285.487 188.36C285.487 190.726 286.803 192.21 288.959 192.21C289.897 192.21 290.681 191.902 291.353 191.356L290.527 190.18C290.009 190.572 289.617 190.754 289.043 190.754C288.035 190.754 287.377 190.124 287.377 188.332C287.377 186.554 288.021 185.798 289.057 185.798C289.617 185.798 290.065 185.966 290.541 186.344L291.353 185.252C290.653 184.65 289.897 184.384 288.931 184.384ZM296.26 190.488C295.938 190.684 295.658 190.768 295.378 190.768C294.832 190.768 294.594 190.474 294.594 189.746V185.882H296.12L296.316 184.594H294.594V182.746L292.802 182.956V184.594H291.64V185.882H292.802V189.788C292.802 191.37 293.572 192.196 295.042 192.21C295.686 192.21 296.358 192.028 296.89 191.65L296.26 190.488ZM303.824 188.122C303.824 185.784 302.634 184.384 300.576 184.384C298.476 184.384 297.286 186.092 297.286 188.346C297.286 190.684 298.518 192.21 300.814 192.21C301.92 192.21 302.83 191.804 303.558 191.216L302.802 190.194C302.158 190.642 301.626 190.852 300.968 190.852C299.988 190.852 299.274 190.362 299.148 188.85H303.796C303.81 188.654 303.824 188.36 303.824 188.122ZM302.06 187.688H299.134C299.246 186.218 299.764 185.658 300.618 185.658C301.626 185.658 302.06 186.386 302.06 187.604V187.688ZM309.098 190.488C308.776 190.684 308.496 190.768 308.216 190.768C307.67 190.768 307.432 190.474 307.432 189.746V185.882H308.958L309.154 184.594H307.432V182.746L305.64 182.956V184.594H304.478V185.882H305.64V189.788C305.64 191.37 306.41 192.196 307.88 192.21C308.524 192.21 309.196 192.028 309.728 191.65L309.098 190.488ZM316.658 184.594H314.866V189.802C314.474 190.446 313.97 190.852 313.368 190.852C312.752 190.852 312.458 190.558 312.458 189.69V184.594H310.666V189.914C310.666 191.342 311.394 192.21 312.738 192.21C313.746 192.21 314.46 191.804 315.006 190.964L315.104 192H316.658V184.594ZM322.47 184.398C321.602 184.398 320.888 184.986 320.538 186.05L320.37 184.594H318.816V192H320.608V188.052C320.888 186.806 321.336 186.148 322.246 186.148C322.498 186.148 322.68 186.176 322.904 186.232L323.212 184.496C322.974 184.426 322.722 184.398 322.47 184.398ZM333.314 190.04V186.932C333.314 185.294 332.432 184.384 330.458 184.384C329.618 184.384 328.694 184.566 327.77 184.916L328.19 186.134C328.932 185.882 329.646 185.742 330.15 185.742C331.116 185.742 331.536 186.064 331.536 187.03V187.45H330.612C328.456 187.45 327.238 188.318 327.238 189.928C327.238 191.272 328.148 192.21 329.632 192.21C330.514 192.21 331.326 191.888 331.844 191.104C332.138 191.818 332.67 192.112 333.482 192.182L333.86 190.992C333.496 190.852 333.314 190.642 333.314 190.04ZM330.108 190.908C329.436 190.908 329.058 190.502 329.058 189.788C329.058 188.92 329.632 188.5 330.808 188.5H331.536V190.012C331.2 190.586 330.724 190.908 330.108 190.908ZM339.907 181.43V185.182C339.445 184.72 338.815 184.384 338.059 184.384C336.197 184.384 335.063 186.022 335.063 188.304C335.063 190.656 336.029 192.21 337.863 192.21C338.843 192.21 339.543 191.72 339.991 191.048L340.117 192H341.699V181.626L339.907 181.43ZM338.381 190.852C337.499 190.852 336.939 190.194 336.939 188.29C336.939 186.512 337.555 185.728 338.493 185.728C339.095 185.728 339.515 186.036 339.907 186.512V189.886C339.487 190.516 339.039 190.852 338.381 190.852ZM344.731 180.842C344.073 180.842 343.611 181.318 343.611 181.934C343.611 182.536 344.073 183.012 344.731 183.012C345.403 183.012 345.865 182.536 345.865 181.934C345.865 181.318 345.403 180.842 344.731 180.842ZM345.641 184.594H343.849V192H345.641V184.594ZM351.609 184.384C350.839 184.384 350.055 184.734 349.467 185.504L349.369 184.594H347.801V195.052L349.593 194.856V191.412C350.055 191.958 350.685 192.21 351.455 192.21C353.317 192.21 354.381 190.544 354.381 188.276C354.381 185.91 353.569 184.384 351.609 184.384ZM350.937 190.838C350.391 190.838 349.929 190.586 349.593 190.082V186.736C349.943 186.162 350.461 185.728 351.077 185.728C352.001 185.728 352.505 186.414 352.505 188.29C352.505 190.082 351.931 190.838 350.937 190.838ZM357.023 180.842C356.365 180.842 355.903 181.318 355.903 181.934C355.903 182.536 356.365 183.012 357.023 183.012C357.695 183.012 358.157 182.536 358.157 181.934C358.157 181.318 357.695 180.842 357.023 180.842ZM357.933 184.594H356.141V192H357.933V184.594ZM362.43 184.384C360.708 184.384 359.574 185.308 359.574 186.54C359.574 187.632 360.246 188.36 361.772 188.78C363.158 189.172 363.452 189.368 363.452 190.012C363.452 190.53 362.948 190.88 362.136 190.88C361.38 190.88 360.694 190.586 360.148 190.138L359.224 191.16C359.91 191.776 360.918 192.21 362.178 192.21C363.872 192.21 365.314 191.398 365.314 189.858C365.314 188.542 364.446 187.926 362.948 187.52C361.674 187.17 361.394 186.946 361.394 186.456C361.394 186.008 361.786 185.714 362.542 185.714C363.158 185.714 363.76 185.924 364.362 186.344L365.062 185.266C364.362 184.72 363.494 184.384 362.43 184.384ZM369.718 184.384C367.59 184.384 366.274 185.994 366.274 188.36C366.274 190.726 367.59 192.21 369.746 192.21C370.684 192.21 371.468 191.902 372.14 191.356L371.314 190.18C370.796 190.572 370.404 190.754 369.83 190.754C368.822 190.754 368.164 190.124 368.164 188.332C368.164 186.554 368.808 185.798 369.844 185.798C370.404 185.798 370.852 185.966 371.328 186.344L372.14 185.252C371.44 184.65 370.684 184.384 369.718 184.384ZM374.317 180.842C373.659 180.842 373.197 181.318 373.197 181.934C373.197 182.536 373.659 183.012 374.317 183.012C374.989 183.012 375.451 182.536 375.451 181.934C375.451 181.318 374.989 180.842 374.317 180.842ZM375.227 184.594H373.435V192H375.227V184.594ZM381.335 184.384C380.397 184.384 379.655 184.818 379.081 185.56L378.941 184.594H377.387V192H379.179V186.848C379.613 186.162 380.089 185.728 380.733 185.728C381.293 185.728 381.643 185.994 381.643 186.918V192H383.435V186.638C383.435 185.224 382.651 184.384 381.335 184.384ZM391.513 183.558C390.617 184.034 389.805 184.426 388.069 184.384C386.263 184.384 384.989 185.434 384.989 187.044C384.989 187.996 385.381 188.654 386.291 189.13C385.745 189.466 385.437 189.984 385.437 190.502C385.437 191.272 386.053 191.93 387.551 191.93H388.671C389.483 191.93 389.917 192.266 389.917 192.812C389.917 193.4 389.497 193.792 388.055 193.792C386.585 193.792 386.263 193.47 386.263 192.728H384.653C384.653 194.212 385.395 195.052 388.027 195.052C390.449 195.052 391.723 194.17 391.723 192.686C391.723 191.468 390.659 190.586 389.021 190.586H387.887C387.145 190.586 387.005 190.334 387.005 190.068C387.005 189.844 387.117 189.648 387.299 189.522C387.579 189.606 387.873 189.634 388.181 189.634C390.043 189.634 391.177 188.584 391.177 187.142C391.177 186.218 390.729 185.644 389.819 185.238C390.701 185.238 391.401 185.182 391.961 184.986L391.513 183.558ZM388.097 185.602C388.979 185.602 389.427 186.064 389.427 187.002C389.427 187.94 388.965 188.472 388.111 188.472C387.285 188.472 386.795 187.912 386.795 187.016C386.795 186.162 387.271 185.602 388.097 185.602ZM402.603 188.122C402.603 185.784 401.413 184.384 399.355 184.384C397.255 184.384 396.065 186.092 396.065 188.346C396.065 190.684 397.297 192.21 399.593 192.21C400.699 192.21 401.609 191.804 402.337 191.216L401.581 190.194C400.937 190.642 400.405 190.852 399.747 190.852C398.767 190.852 398.053 190.362 397.927 188.85H402.575C402.589 188.654 402.603 188.36 402.603 188.122ZM400.839 187.688H397.913C398.025 186.218 398.543 185.658 399.397 185.658C400.405 185.658 400.839 186.386 400.839 187.604V187.688ZM406.016 192.21C406.478 192.21 406.898 192.098 407.206 191.958L406.828 190.698C406.702 190.74 406.576 190.768 406.408 190.768C406.114 190.768 405.988 190.6 405.988 190.25V181.43L404.196 181.626V190.306C404.196 191.524 404.882 192.21 406.016 192.21ZM409.276 180.842C408.618 180.842 408.156 181.318 408.156 181.934C408.156 182.536 408.618 183.012 409.276 183.012C409.948 183.012 410.41 182.536 410.41 181.934C410.41 181.318 409.948 180.842 409.276 180.842ZM410.186 184.594H408.394V192H410.186V184.594ZM415.958 190.488C415.636 190.684 415.356 190.768 415.076 190.768C414.53 190.768 414.292 190.474 414.292 189.746V185.882H415.818L416.014 184.594H414.292V182.746L412.5 182.956V184.594H411.338V185.882H412.5V189.788C412.5 191.37 413.27 192.196 414.74 192.21C415.384 192.21 416.056 192.028 416.588 191.65L415.958 190.488ZM418.198 189.942C417.554 189.942 417.064 190.446 417.064 191.076C417.064 191.692 417.554 192.21 418.198 192.21C418.828 192.21 419.332 191.692 419.332 191.076C419.332 190.446 418.828 189.942 418.198 189.942ZM68.92 203.116C67.016 203.116 65.63 204.18 65.63 205.79C65.63 207.26 66.512 208.072 68.556 208.702C70.068 209.164 70.474 209.528 70.474 210.34C70.474 211.278 69.718 211.782 68.682 211.782C67.688 211.782 66.904 211.418 66.232 210.788L65.238 211.88C66.036 212.664 67.184 213.21 68.738 213.21C71.034 213.21 72.406 211.978 72.406 210.242C72.406 208.422 71.23 207.722 69.536 207.19C67.912 206.686 67.534 206.378 67.534 205.678C67.534 204.922 68.164 204.53 69.046 204.53C69.83 204.53 70.502 204.782 71.188 205.37L72.112 204.306C71.286 203.536 70.334 203.116 68.92 203.116ZM79.834 205.594H78.042V210.802C77.65 211.446 77.146 211.852 76.544 211.852C75.928 211.852 75.634 211.558 75.634 210.69V205.594H73.842V210.914C73.842 212.342 74.57 213.21 75.914 213.21C76.922 213.21 77.636 212.804 78.182 211.964L78.28 213H79.834V205.594ZM84.3301 205.384C82.6081 205.384 81.4741 206.308 81.4741 207.54C81.4741 208.632 82.1461 209.36 83.6721 209.78C85.0581 210.172 85.3521 210.368 85.3521 211.012C85.3521 211.53 84.8481 211.88 84.0361 211.88C83.2801 211.88 82.5941 211.586 82.0481 211.138L81.1241 212.16C81.8101 212.776 82.8181 213.21 84.0781 213.21C85.7721 213.21 87.2141 212.398 87.2141 210.858C87.2141 209.542 86.3461 208.926 84.8481 208.52C83.5741 208.17 83.2941 207.946 83.2941 207.456C83.2941 207.008 83.6861 206.714 84.4421 206.714C85.0581 206.714 85.6601 206.924 86.2621 207.344L86.9621 206.266C86.2621 205.72 85.3941 205.384 84.3301 205.384ZM92.4583 205.384C91.6883 205.384 90.9043 205.734 90.3163 206.504L90.2183 205.594H88.6503V216.052L90.4423 215.856V212.412C90.9043 212.958 91.5343 213.21 92.3043 213.21C94.1663 213.21 95.2303 211.544 95.2303 209.276C95.2303 206.91 94.4183 205.384 92.4583 205.384ZM91.7863 211.838C91.2403 211.838 90.7783 211.586 90.4423 211.082V207.736C90.7923 207.162 91.3103 206.728 91.9263 206.728C92.8503 206.728 93.3543 207.414 93.3543 209.29C93.3543 211.082 92.7803 211.838 91.7863 211.838ZM103.052 209.122C103.052 206.784 101.862 205.384 99.8041 205.384C97.7041 205.384 96.5141 207.092 96.5141 209.346C96.5141 211.684 97.7461 213.21 100.042 213.21C101.148 213.21 102.058 212.804 102.786 212.216L102.03 211.194C101.386 211.642 100.854 211.852 100.196 211.852C99.2161 211.852 98.5021 211.362 98.3761 209.85H103.024C103.038 209.654 103.052 209.36 103.052 209.122ZM101.288 208.688H98.3621C98.4741 207.218 98.9921 206.658 99.8461 206.658C100.854 206.658 101.288 207.386 101.288 208.604V208.688ZM108.663 205.384C107.725 205.384 106.983 205.818 106.409 206.56L106.269 205.594H104.715V213H106.507V207.848C106.941 207.162 107.417 206.728 108.061 206.728C108.621 206.728 108.971 206.994 108.971 207.918V213H110.763V207.638C110.763 206.224 109.979 205.384 108.663 205.384ZM117.287 202.43V206.182C116.825 205.72 116.195 205.384 115.439 205.384C113.577 205.384 112.443 207.022 112.443 209.304C112.443 211.656 113.409 213.21 115.243 213.21C116.223 213.21 116.923 212.72 117.371 212.048L117.497 213H119.079V202.626L117.287 202.43ZM115.761 211.852C114.879 211.852 114.319 211.194 114.319 209.29C114.319 207.512 114.935 206.728 115.873 206.728C116.475 206.728 116.895 207.036 117.287 207.512V210.886C116.867 211.516 116.419 211.852 115.761 211.852ZM122.112 201.842C121.454 201.842 120.992 202.318 120.992 202.934C120.992 203.536 121.454 204.012 122.112 204.012C122.784 204.012 123.246 203.536 123.246 202.934C123.246 202.318 122.784 201.842 122.112 201.842ZM123.022 205.594H121.23V213H123.022V205.594ZM127.52 205.384C125.798 205.384 124.664 206.308 124.664 207.54C124.664 208.632 125.336 209.36 126.862 209.78C128.248 210.172 128.542 210.368 128.542 211.012C128.542 211.53 128.038 211.88 127.226 211.88C126.47 211.88 125.784 211.586 125.238 211.138L124.314 212.16C125 212.776 126.008 213.21 127.268 213.21C128.962 213.21 130.404 212.398 130.404 210.858C130.404 209.542 129.536 208.926 128.038 208.52C126.764 208.17 126.484 207.946 126.484 207.456C126.484 207.008 126.876 206.714 127.632 206.714C128.248 206.714 128.85 206.924 129.452 207.344L130.152 206.266C129.452 205.72 128.584 205.384 127.52 205.384ZM134.178 205.384C132.456 205.384 131.322 206.308 131.322 207.54C131.322 208.632 131.994 209.36 133.52 209.78C134.906 210.172 135.2 210.368 135.2 211.012C135.2 211.53 134.696 211.88 133.884 211.88C133.128 211.88 132.442 211.586 131.896 211.138L130.972 212.16C131.658 212.776 132.666 213.21 133.926 213.21C135.62 213.21 137.062 212.398 137.062 210.858C137.062 209.542 136.194 208.926 134.696 208.52C133.422 208.17 133.142 207.946 133.142 207.456C133.142 207.008 133.534 206.714 134.29 206.714C134.906 206.714 135.508 206.924 136.11 207.344L136.81 206.266C136.11 205.72 135.242 205.384 134.178 205.384ZM144.56 209.122C144.56 206.784 143.37 205.384 141.312 205.384C139.212 205.384 138.022 207.092 138.022 209.346C138.022 211.684 139.254 213.21 141.55 213.21C142.656 213.21 143.566 212.804 144.294 212.216L143.538 211.194C142.894 211.642 142.362 211.852 141.704 211.852C140.724 211.852 140.01 211.362 139.884 209.85H144.532C144.546 209.654 144.56 209.36 144.56 209.122ZM142.796 208.688H139.87C139.982 207.218 140.5 206.658 141.354 206.658C142.362 206.658 142.796 207.386 142.796 208.604V208.688ZM155.687 205.594H153.839L152.215 211.558L150.619 205.594H148.673L151.137 213H153.265L155.687 205.594ZM162.703 209.122C162.703 206.784 161.513 205.384 159.455 205.384C157.355 205.384 156.165 207.092 156.165 209.346C156.165 211.684 157.397 213.21 159.693 213.21C160.799 213.21 161.709 212.804 162.437 212.216L161.681 211.194C161.037 211.642 160.505 211.852 159.847 211.852C158.867 211.852 158.153 211.362 158.027 209.85H162.675C162.689 209.654 162.703 209.36 162.703 209.122ZM160.939 208.688H158.013C158.125 207.218 158.643 206.658 159.497 206.658C160.505 206.658 160.939 207.386 160.939 208.604V208.688ZM166.115 213.21C166.577 213.21 166.997 213.098 167.305 212.958L166.927 211.698C166.801 211.74 166.675 211.768 166.507 211.768C166.213 211.768 166.087 211.6 166.087 211.25V202.43L164.295 202.626V211.306C164.295 212.524 164.981 213.21 166.115 213.21ZM178.056 209.122C178.056 206.784 176.866 205.384 174.808 205.384C172.708 205.384 171.518 207.092 171.518 209.346C171.518 211.684 172.75 213.21 175.046 213.21C176.152 213.21 177.062 212.804 177.79 212.216L177.034 211.194C176.39 211.642 175.858 211.852 175.2 211.852C174.22 211.852 173.506 211.362 173.38 209.85H178.028C178.042 209.654 178.056 209.36 178.056 209.122ZM176.292 208.688H173.366C173.478 207.218 173.996 206.658 174.85 206.658C175.858 206.658 176.292 207.386 176.292 208.604V208.688ZM181.469 213.21C181.931 213.21 182.351 213.098 182.659 212.958L182.281 211.698C182.155 211.74 182.029 211.768 181.861 211.768C181.567 211.768 181.441 211.6 181.441 211.25V202.43L179.649 202.626V211.306C179.649 212.524 180.335 213.21 181.469 213.21ZM189.773 209.122C189.773 206.784 188.583 205.384 186.525 205.384C184.425 205.384 183.235 207.092 183.235 209.346C183.235 211.684 184.467 213.21 186.763 213.21C187.869 213.21 188.779 212.804 189.507 212.216L188.751 211.194C188.107 211.642 187.575 211.852 186.917 211.852C185.937 211.852 185.223 211.362 185.097 209.85H189.745C189.759 209.654 189.773 209.36 189.773 209.122ZM188.009 208.688H185.083C185.195 207.218 185.713 206.658 186.567 206.658C187.575 206.658 188.009 207.386 188.009 208.604V208.688ZM192.317 201.842C191.659 201.842 191.197 202.318 191.197 202.934C191.197 203.536 191.659 204.012 192.317 204.012C192.989 204.012 193.451 203.536 193.451 202.934C193.451 202.318 192.989 201.842 192.317 201.842ZM193.227 205.594H191.435V213H193.227V205.594ZM198.369 203.788C198.719 203.788 199.139 203.858 199.587 204.068L200.105 202.864C199.545 202.598 198.929 202.43 198.201 202.43C196.479 202.43 195.597 203.438 195.597 204.782V205.594H194.393V206.882H195.597V213H197.389V206.882H198.971L199.167 205.594H197.389V204.81C197.389 204.11 197.655 203.788 198.369 203.788ZM206.165 209.122C206.165 206.784 204.975 205.384 202.917 205.384C200.817 205.384 199.627 207.092 199.627 209.346C199.627 211.684 200.859 213.21 203.155 213.21C204.261 213.21 205.171 212.804 205.899 212.216L205.143 211.194C204.499 211.642 203.967 211.852 203.309 211.852C202.329 211.852 201.615 211.362 201.489 209.85H206.137C206.151 209.654 206.165 209.36 206.165 209.122ZM204.401 208.688H201.475C201.587 207.218 202.105 206.658 202.959 206.658C203.967 206.658 204.401 207.386 204.401 208.604V208.688ZM211.776 205.384C210.838 205.384 210.096 205.818 209.522 206.56L209.382 205.594H207.828V213H209.62V207.848C210.054 207.162 210.53 206.728 211.174 206.728C211.734 206.728 212.084 206.994 212.084 207.918V213H213.876V207.638C213.876 206.224 213.092 205.384 211.776 205.384ZM220.401 202.43V206.182C219.939 205.72 219.309 205.384 218.553 205.384C216.691 205.384 215.557 207.022 215.557 209.304C215.557 211.656 216.523 213.21 218.357 213.21C219.337 213.21 220.037 212.72 220.485 212.048L220.611 213H222.193V202.626L220.401 202.43ZM218.875 211.852C217.993 211.852 217.433 211.194 217.433 209.29C217.433 207.512 218.049 206.728 218.987 206.728C219.589 206.728 220.009 207.036 220.401 207.512V210.886C219.981 211.516 219.533 211.852 218.875 211.852ZM232.282 202.43V206.182C231.82 205.72 231.19 205.384 230.434 205.384C228.572 205.384 227.438 207.022 227.438 209.304C227.438 211.656 228.404 213.21 230.238 213.21C231.218 213.21 231.918 212.72 232.366 212.048L232.492 213H234.074V202.626L232.282 202.43ZM230.756 211.852C229.874 211.852 229.314 211.194 229.314 209.29C229.314 207.512 229.93 206.728 230.868 206.728C231.47 206.728 231.89 207.036 232.282 207.512V210.886C231.862 211.516 231.414 211.852 230.756 211.852ZM237.106 201.842C236.448 201.842 235.986 202.318 235.986 202.934C235.986 203.536 236.448 204.012 237.106 204.012C237.778 204.012 238.24 203.536 238.24 202.934C238.24 202.318 237.778 201.842 237.106 201.842ZM238.016 205.594H236.224V213H238.016V205.594ZM245.664 211.04V207.932C245.664 206.294 244.782 205.384 242.808 205.384C241.968 205.384 241.044 205.566 240.12 205.916L240.54 207.134C241.282 206.882 241.996 206.742 242.5 206.742C243.466 206.742 243.886 207.064 243.886 208.03V208.45H242.962C240.806 208.45 239.588 209.318 239.588 210.928C239.588 212.272 240.498 213.21 241.982 213.21C242.864 213.21 243.676 212.888 244.194 212.104C244.488 212.818 245.02 213.112 245.832 213.182L246.21 211.992C245.846 211.852 245.664 211.642 245.664 211.04ZM242.458 211.908C241.786 211.908 241.408 211.502 241.408 210.788C241.408 209.92 241.982 209.5 243.158 209.5H243.886V211.012C243.55 211.586 243.074 211.908 242.458 211.908ZM255.672 205.384C254.692 205.384 254.02 205.86 253.46 206.63C253.166 205.846 252.522 205.384 251.654 205.384C250.716 205.384 250.044 205.818 249.512 206.56L249.372 205.594H247.818V213H249.61V207.848C250.002 207.162 250.394 206.728 251.01 206.728C251.458 206.728 251.822 206.994 251.822 207.918V213H253.614V207.792L253.628 207.848C254.034 207.162 254.426 206.728 255.042 206.728C255.476 206.728 255.854 206.994 255.854 207.918V213H257.646V207.638C257.646 206.238 256.848 205.384 255.672 205.384ZM260.315 210.942C259.671 210.942 259.181 211.432 259.181 212.062C259.181 212.454 259.363 212.79 259.657 213L259.083 215.408H260.175L261.099 213.336C261.337 212.776 261.449 212.44 261.449 212.076C261.449 211.432 260.959 210.942 260.315 210.942ZM270.188 211.488C269.866 211.684 269.586 211.768 269.306 211.768C268.76 211.768 268.522 211.474 268.522 210.746V206.882H270.048L270.244 205.594H268.522V203.746L266.73 203.956V205.594H265.568V206.882H266.73V210.788C266.73 212.37 267.5 213.196 268.97 213.21C269.614 213.21 270.286 213.028 270.818 212.65L270.188 211.488ZM277.751 209.122C277.751 206.784 276.561 205.384 274.503 205.384C272.403 205.384 271.213 207.092 271.213 209.346C271.213 211.684 272.445 213.21 274.741 213.21C275.847 213.21 276.757 212.804 277.485 212.216L276.729 211.194C276.085 211.642 275.553 211.852 274.895 211.852C273.915 211.852 273.201 211.362 273.075 209.85H277.723C277.737 209.654 277.751 209.36 277.751 209.122ZM275.987 208.688H273.061C273.173 207.218 273.691 206.658 274.545 206.658C275.553 206.658 275.987 207.386 275.987 208.604V208.688ZM287.268 205.384C286.288 205.384 285.616 205.86 285.056 206.63C284.762 205.846 284.118 205.384 283.25 205.384C282.312 205.384 281.64 205.818 281.108 206.56L280.968 205.594H279.414V213H281.206V207.848C281.598 207.162 281.99 206.728 282.606 206.728C283.054 206.728 283.418 206.994 283.418 207.918V213H285.21V207.792L285.224 207.848C285.63 207.162 286.022 206.728 286.638 206.728C287.072 206.728 287.45 206.994 287.45 207.918V213H289.242V207.638C289.242 206.238 288.444 205.384 287.268 205.384ZM295.116 205.384C294.346 205.384 293.562 205.734 292.974 206.504L292.876 205.594H291.308V216.052L293.1 215.856V212.412C293.562 212.958 294.192 213.21 294.962 213.21C296.824 213.21 297.888 211.544 297.888 209.276C297.888 206.91 297.076 205.384 295.116 205.384ZM294.444 211.838C293.898 211.838 293.436 211.586 293.1 211.082V207.736C293.45 207.162 293.968 206.728 294.584 206.728C295.508 206.728 296.012 207.414 296.012 209.29C296.012 211.082 295.438 211.838 294.444 211.838ZM305.57 205.594H303.778V210.802C303.386 211.446 302.882 211.852 302.28 211.852C301.664 211.852 301.37 211.558 301.37 210.69V205.594H299.578V210.914C299.578 212.342 300.306 213.21 301.65 213.21C302.658 213.21 303.372 212.804 303.918 211.964L304.016 213H305.57V205.594ZM310.066 205.384C308.344 205.384 307.21 206.308 307.21 207.54C307.21 208.632 307.882 209.36 309.408 209.78C310.794 210.172 311.088 210.368 311.088 211.012C311.088 211.53 310.584 211.88 309.772 211.88C309.016 211.88 308.33 211.586 307.784 211.138L306.86 212.16C307.546 212.776 308.554 213.21 309.814 213.21C311.508 213.21 312.95 212.398 312.95 210.858C312.95 209.542 312.082 208.926 310.584 208.52C309.31 208.17 309.03 207.946 309.03 207.456C309.03 207.008 309.422 206.714 310.178 206.714C310.794 206.714 311.396 206.924 311.998 207.344L312.698 206.266C311.998 205.72 311.13 205.384 310.066 205.384ZM323.375 211.04V207.932C323.375 206.294 322.493 205.384 320.519 205.384C319.679 205.384 318.755 205.566 317.831 205.916L318.251 207.134C318.993 206.882 319.707 206.742 320.211 206.742C321.177 206.742 321.597 207.064 321.597 208.03V208.45H320.673C318.517 208.45 317.299 209.318 317.299 210.928C317.299 212.272 318.209 213.21 319.693 213.21C320.575 213.21 321.387 212.888 321.905 212.104C322.199 212.818 322.731 213.112 323.543 213.182L323.921 211.992C323.557 211.852 323.375 211.642 323.375 211.04ZM320.169 211.908C319.497 211.908 319.119 211.502 319.119 210.788C319.119 209.92 319.693 209.5 320.869 209.5H321.597V211.012C321.261 211.586 320.785 211.908 320.169 211.908ZM328.497 205.384C326.369 205.384 325.053 206.994 325.053 209.36C325.053 211.726 326.369 213.21 328.525 213.21C329.463 213.21 330.247 212.902 330.919 212.356L330.093 211.18C329.575 211.572 329.183 211.754 328.609 211.754C327.601 211.754 326.943 211.124 326.943 209.332C326.943 207.554 327.587 206.798 328.623 206.798C329.183 206.798 329.631 206.966 330.107 207.344L330.919 206.252C330.219 205.65 329.463 205.384 328.497 205.384ZM335.046 205.384C332.918 205.384 331.602 206.994 331.602 209.36C331.602 211.726 332.918 213.21 335.074 213.21C336.012 213.21 336.796 212.902 337.468 212.356L336.642 211.18C336.124 211.572 335.732 211.754 335.158 211.754C334.15 211.754 333.492 211.124 333.492 209.332C333.492 207.554 334.136 206.798 335.172 206.798C335.732 206.798 336.18 206.966 336.656 207.344L337.468 206.252C336.768 205.65 336.012 205.384 335.046 205.384ZM344.686 205.594H342.894V210.802C342.502 211.446 341.998 211.852 341.396 211.852C340.78 211.852 340.486 211.558 340.486 210.69V205.594H338.694V210.914C338.694 212.342 339.422 213.21 340.766 213.21C341.774 213.21 342.488 212.804 343.034 211.964L343.132 213H344.686V205.594ZM354.698 205.384C353.718 205.384 353.046 205.86 352.486 206.63C352.192 205.846 351.548 205.384 350.68 205.384C349.742 205.384 349.07 205.818 348.538 206.56L348.398 205.594H346.844V213H348.636V207.848C349.028 207.162 349.42 206.728 350.036 206.728C350.484 206.728 350.848 206.994 350.848 207.918V213H352.64V207.792L352.654 207.848C353.06 207.162 353.452 206.728 354.068 206.728C354.502 206.728 354.88 206.994 354.88 207.918V213H356.672V207.638C356.672 206.238 355.874 205.384 354.698 205.384ZM361.076 205.384C359.354 205.384 358.22 206.308 358.22 207.54C358.22 208.632 358.892 209.36 360.418 209.78C361.804 210.172 362.098 210.368 362.098 211.012C362.098 211.53 361.594 211.88 360.782 211.88C360.026 211.88 359.34 211.586 358.794 211.138L357.87 212.16C358.556 212.776 359.564 213.21 360.824 213.21C362.518 213.21 363.96 212.398 363.96 210.858C363.96 209.542 363.092 208.926 361.594 208.52C360.32 208.17 360.04 207.946 360.04 207.456C360.04 207.008 360.432 206.714 361.188 206.714C361.804 206.714 362.406 206.924 363.008 207.344L363.708 206.266C363.008 205.72 362.14 205.384 361.076 205.384ZM370.884 211.04V207.932C370.884 206.294 370.002 205.384 368.028 205.384C367.188 205.384 366.264 205.566 365.34 205.916L365.76 207.134C366.502 206.882 367.216 206.742 367.72 206.742C368.686 206.742 369.106 207.064 369.106 208.03V208.45H368.182C366.026 208.45 364.808 209.318 364.808 210.928C364.808 212.272 365.718 213.21 367.202 213.21C368.084 213.21 368.896 212.888 369.414 212.104C369.708 212.818 370.24 213.112 371.052 213.182L371.43 211.992C371.066 211.852 370.884 211.642 370.884 211.04ZM367.678 211.908C367.006 211.908 366.628 211.502 366.628 210.788C366.628 209.92 367.202 209.5 368.378 209.5H369.106V211.012C368.77 211.586 368.294 211.908 367.678 211.908ZM376.987 205.384C376.049 205.384 375.307 205.818 374.733 206.56L374.593 205.594H373.039V213H374.831V207.848C375.265 207.162 375.741 206.728 376.385 206.728C376.945 206.728 377.295 206.994 377.295 207.918V213H379.087V207.638C379.087 206.224 378.303 205.384 376.987 205.384ZM388.622 205.384C387.684 205.384 386.942 205.818 386.368 206.56L386.228 205.594H384.674V213H386.466V207.848C386.9 207.162 387.376 206.728 388.02 206.728C388.58 206.728 388.93 206.994 388.93 207.918V213H390.722V207.638C390.722 206.224 389.938 205.384 388.622 205.384ZM398.87 209.122C398.87 206.784 397.68 205.384 395.622 205.384C393.522 205.384 392.332 207.092 392.332 209.346C392.332 211.684 393.564 213.21 395.86 213.21C396.966 213.21 397.876 212.804 398.604 212.216L397.848 211.194C397.204 211.642 396.672 211.852 396.014 211.852C395.034 211.852 394.32 211.362 394.194 209.85H398.842C398.856 209.654 398.87 209.36 398.87 209.122ZM397.106 208.688H394.18C394.292 207.218 394.81 206.658 395.664 206.658C396.672 206.658 397.106 207.386 397.106 208.604V208.688ZM405.139 205.594L405.041 206.322C404.509 205.734 403.851 205.384 403.053 205.384C401.191 205.384 400.057 207.022 400.057 209.304C400.057 211.656 401.023 213.21 402.857 213.21C403.781 213.21 404.453 212.776 404.901 212.146V215.856L406.693 216.052V205.594H405.139ZM403.375 211.852C402.493 211.852 401.933 211.194 401.933 209.29C401.933 207.512 402.549 206.728 403.487 206.728C404.089 206.728 404.509 207.036 404.901 207.512V210.886C404.481 211.516 404.033 211.852 403.375 211.852ZM414.768 205.594H412.976V210.802C412.584 211.446 412.08 211.852 411.478 211.852C410.862 211.852 410.568 211.558 410.568 210.69V205.594H408.776V210.914C408.776 212.342 409.504 213.21 410.848 213.21C411.856 213.21 412.57 212.804 413.116 211.964L413.214 213H414.768V205.594ZM422.988 209.122C422.988 206.784 421.798 205.384 419.74 205.384C417.64 205.384 416.45 207.092 416.45 209.346C416.45 211.684 417.682 213.21 419.978 213.21C421.084 213.21 421.994 212.804 422.722 212.216L421.966 211.194C421.322 211.642 420.79 211.852 420.132 211.852C419.152 211.852 418.438 211.362 418.312 209.85H422.96C422.974 209.654 422.988 209.36 422.988 209.122ZM421.224 208.688H418.298C418.41 207.218 418.928 206.658 419.782 206.658C420.79 206.658 421.224 207.386 421.224 208.604V208.688ZM425.252 210.942C424.608 210.942 424.118 211.446 424.118 212.076C424.118 212.692 424.608 213.21 425.252 213.21C425.882 213.21 426.386 212.692 426.386 212.076C426.386 211.446 425.882 210.942 425.252 210.942Z" fill="#222222" fill-opacity="0.6"/>
<path d="M112.966 267.326H111.076L109.018 275.362L106.918 267.326H104.944L107.884 277H110.096L112.966 267.326ZM118.867 275.04V271.932C118.867 270.294 117.985 269.384 116.011 269.384C115.171 269.384 114.247 269.566 113.323 269.916L113.743 271.134C114.485 270.882 115.199 270.742 115.703 270.742C116.669 270.742 117.089 271.064 117.089 272.03V272.45H116.165C114.009 272.45 112.791 273.318 112.791 274.928C112.791 276.272 113.701 277.21 115.185 277.21C116.067 277.21 116.879 276.888 117.397 276.104C117.691 276.818 118.223 277.112 119.035 277.182L119.413 275.992C119.049 275.852 118.867 275.642 118.867 275.04ZM115.661 275.908C114.989 275.908 114.611 275.502 114.611 274.788C114.611 273.92 115.185 273.5 116.361 273.5H117.089V275.012C116.753 275.586 116.277 275.908 115.661 275.908ZM122.771 277.21C123.233 277.21 123.653 277.098 123.961 276.958L123.583 275.698C123.457 275.74 123.331 275.768 123.163 275.768C122.869 275.768 122.743 275.6 122.743 275.25V266.43L120.951 266.626V275.306C120.951 276.524 121.637 277.21 122.771 277.21ZM126.9 277.21C127.362 277.21 127.782 277.098 128.09 276.958L127.712 275.698C127.586 275.74 127.46 275.768 127.292 275.768C126.998 275.768 126.872 275.6 126.872 275.25V266.43L125.08 266.626V275.306C125.08 276.524 125.766 277.21 126.9 277.21ZM135.271 268.558C134.375 269.034 133.563 269.426 131.827 269.384C130.021 269.384 128.747 270.434 128.747 272.044C128.747 272.996 129.139 273.654 130.049 274.13C129.503 274.466 129.195 274.984 129.195 275.502C129.195 276.272 129.811 276.93 131.309 276.93H132.429C133.241 276.93 133.675 277.266 133.675 277.812C133.675 278.4 133.255 278.792 131.813 278.792C130.343 278.792 130.021 278.47 130.021 277.728H128.411C128.411 279.212 129.153 280.052 131.785 280.052C134.207 280.052 135.481 279.17 135.481 277.686C135.481 276.468 134.417 275.586 132.779 275.586H131.645C130.903 275.586 130.763 275.334 130.763 275.068C130.763 274.844 130.875 274.648 131.057 274.522C131.337 274.606 131.631 274.634 131.939 274.634C133.801 274.634 134.935 273.584 134.935 272.142C134.935 271.218 134.487 270.644 133.577 270.238C134.459 270.238 135.159 270.182 135.719 269.986L135.271 268.558ZM131.855 270.602C132.737 270.602 133.185 271.064 133.185 272.002C133.185 272.94 132.723 273.472 131.869 273.472C131.043 273.472 130.553 272.912 130.553 272.016C130.553 271.162 131.029 270.602 131.855 270.602ZM142.287 275.04V271.932C142.287 270.294 141.405 269.384 139.431 269.384C138.591 269.384 137.667 269.566 136.743 269.916L137.163 271.134C137.905 270.882 138.619 270.742 139.123 270.742C140.089 270.742 140.509 271.064 140.509 272.03V272.45H139.585C137.429 272.45 136.211 273.318 136.211 274.928C136.211 276.272 137.121 277.21 138.605 277.21C139.487 277.21 140.299 276.888 140.817 276.104C141.111 276.818 141.643 277.112 142.455 277.182L142.833 275.992C142.469 275.852 142.287 275.642 142.287 275.04ZM139.081 275.908C138.409 275.908 138.031 275.502 138.031 274.788C138.031 273.92 138.605 273.5 139.781 273.5H140.509V275.012C140.173 275.586 139.697 275.908 139.081 275.908ZM148.053 275.488C147.731 275.684 147.451 275.768 147.171 275.768C146.625 275.768 146.387 275.474 146.387 274.746V270.882H147.913L148.109 269.594H146.387V267.746L144.595 267.956V269.594H143.433V270.882H144.595V274.788C144.595 276.37 145.365 277.196 146.835 277.21C147.479 277.21 148.151 277.028 148.683 276.65L148.053 275.488ZM155.179 275.04V271.932C155.179 270.294 154.297 269.384 152.323 269.384C151.483 269.384 150.559 269.566 149.635 269.916L150.055 271.134C150.797 270.882 151.511 270.742 152.015 270.742C152.981 270.742 153.401 271.064 153.401 272.03V272.45H152.477C150.321 272.45 149.103 273.318 149.103 274.928C149.103 276.272 150.013 277.21 151.497 277.21C152.379 277.21 153.191 276.888 153.709 276.104C154.003 276.818 154.535 277.112 155.347 277.182L155.725 275.992C155.361 275.852 155.179 275.642 155.179 275.04ZM151.973 275.908C151.301 275.908 150.923 275.502 150.923 274.788C150.923 273.92 151.497 273.5 152.673 273.5H153.401V275.012C153.065 275.586 152.589 275.908 151.973 275.908ZM161.282 269.384C160.344 269.384 159.602 269.818 159.028 270.56L158.888 269.594H157.334V277H159.126V271.848C159.56 271.162 160.036 270.728 160.68 270.728C161.24 270.728 161.59 270.994 161.59 271.918V277H163.382V271.638C163.382 270.224 162.598 269.384 161.282 269.384ZM171.167 267.41C169.851 267.41 168.857 267.97 168.101 268.95L169.207 269.818C169.781 269.132 170.285 268.824 171.013 268.824C171.825 268.824 172.371 269.328 172.371 270.196C172.371 271.526 171.601 272.408 168.367 275.684V277H174.233L174.429 275.586H170.397C173.323 272.814 174.219 271.652 174.219 270.056C174.219 268.586 173.099 267.41 171.167 267.41ZM181.356 267.578H175.882V272.506H177.156C177.59 272.282 177.94 272.184 178.388 272.184C179.242 272.184 179.886 272.632 179.886 273.934C179.886 275.152 179.228 275.824 178.178 275.824C177.394 275.824 176.806 275.502 176.288 274.914L175.252 275.88C175.98 276.678 176.904 277.21 178.234 277.21C180.348 277.21 181.734 275.866 181.734 273.934C181.734 272.016 180.614 270.896 179.046 270.896C178.57 270.896 178.08 271.008 177.604 271.246V268.908H181.132L181.356 267.578ZM183.94 274.942C183.296 274.942 182.806 275.432 182.806 276.062C182.806 276.454 182.988 276.79 183.282 277L182.708 279.408H183.8L184.724 277.336C184.962 276.776 185.074 276.44 185.074 276.076C185.074 275.432 184.584 274.942 183.94 274.942ZM194.135 267.116C191.755 267.116 189.725 268.88 189.725 272.156C189.725 275.474 191.237 277.21 193.925 277.21C195.241 277.21 196.375 276.846 197.327 276.258V271.526H193.855L194.051 272.898H195.507V275.418C195.045 275.684 194.513 275.796 193.967 275.796C192.455 275.796 191.671 274.802 191.671 272.156C191.671 269.552 192.847 268.516 194.219 268.516C195.045 268.516 195.591 268.768 196.235 269.3L197.243 268.25C196.431 267.55 195.493 267.116 194.135 267.116ZM200.599 266.01C200.039 266.01 199.605 266.43 199.605 266.976C199.605 267.522 200.039 267.942 200.599 267.942C201.145 267.942 201.565 267.522 201.565 266.976C201.565 266.43 201.145 266.01 200.599 266.01ZM203.693 266.01C203.147 266.01 202.713 266.43 202.713 266.976C202.713 267.522 203.147 267.942 203.693 267.942C204.253 267.942 204.673 267.522 204.673 266.976C204.673 266.43 204.253 266.01 203.693 266.01ZM202.139 269.384C199.941 269.384 198.653 270.966 198.653 273.29C198.653 275.726 199.941 277.21 202.139 277.21C204.323 277.21 205.611 275.628 205.611 273.29C205.611 270.868 204.323 269.384 202.139 269.384ZM202.153 270.742C203.189 270.742 203.749 271.526 203.749 273.29C203.749 275.054 203.189 275.852 202.139 275.852C201.089 275.852 200.543 275.068 200.543 273.29C200.543 271.54 201.103 270.742 202.153 270.742ZM210.917 275.488C210.595 275.684 210.315 275.768 210.035 275.768C209.489 275.768 209.251 275.474 209.251 274.746V270.882H210.777L210.973 269.594H209.251V267.746L207.459 267.956V269.594H206.297V270.882H207.459V274.788C207.459 276.37 208.229 277.196 209.699 277.21C210.343 277.21 211.015 277.028 211.547 276.65L210.917 275.488ZM218.48 273.122C218.48 270.784 217.29 269.384 215.232 269.384C213.132 269.384 211.942 271.092 211.942 273.346C211.942 275.684 213.174 277.21 215.47 277.21C216.576 277.21 217.486 276.804 218.214 276.216L217.458 275.194C216.814 275.642 216.282 275.852 215.624 275.852C214.644 275.852 213.93 275.362 213.804 273.85H218.452C218.466 273.654 218.48 273.36 218.48 273.122ZM216.716 272.688H213.79C213.902 271.218 214.42 270.658 215.274 270.658C216.282 270.658 216.716 271.386 216.716 272.604V272.688ZM223.964 269.384C223.138 269.384 222.41 269.776 221.934 270.434V266.43L220.142 266.626V277H221.724L221.836 276.23C222.326 276.832 222.984 277.21 223.796 277.21C225.63 277.21 226.736 275.6 226.736 273.29C226.736 270.812 225.714 269.384 223.964 269.384ZM223.32 275.866C222.746 275.866 222.27 275.544 221.934 275.012V271.736C222.284 271.162 222.76 270.728 223.418 270.728C224.258 270.728 224.846 271.316 224.846 273.29C224.846 275.152 224.23 275.866 223.32 275.866ZM231.492 269.384C229.294 269.384 228.006 270.966 228.006 273.29C228.006 275.726 229.294 277.21 231.492 277.21C233.676 277.21 234.964 275.628 234.964 273.29C234.964 270.868 233.676 269.384 231.492 269.384ZM231.506 270.742C232.542 270.742 233.102 271.526 233.102 273.29C233.102 275.054 232.542 275.852 231.492 275.852C230.442 275.852 229.896 275.068 229.896 273.29C229.896 271.54 230.456 270.742 231.506 270.742ZM240.312 269.398C239.444 269.398 238.73 269.986 238.38 271.05L238.212 269.594H236.658V277H238.45V273.052C238.73 271.806 239.178 271.148 240.088 271.148C240.34 271.148 240.522 271.176 240.746 271.232L241.054 269.496C240.816 269.426 240.564 269.398 240.312 269.398ZM248.16 268.558C247.264 269.034 246.452 269.426 244.716 269.384C242.91 269.384 241.636 270.434 241.636 272.044C241.636 272.996 242.028 273.654 242.938 274.13C242.392 274.466 242.084 274.984 242.084 275.502C242.084 276.272 242.7 276.93 244.198 276.93H245.318C246.13 276.93 246.564 277.266 246.564 277.812C246.564 278.4 246.144 278.792 244.702 278.792C243.232 278.792 242.91 278.47 242.91 277.728H241.3C241.3 279.212 242.042 280.052 244.674 280.052C247.096 280.052 248.37 279.17 248.37 277.686C248.37 276.468 247.306 275.586 245.668 275.586H244.534C243.792 275.586 243.652 275.334 243.652 275.068C243.652 274.844 243.764 274.648 243.946 274.522C244.226 274.606 244.52 274.634 244.828 274.634C246.69 274.634 247.824 273.584 247.824 272.142C247.824 271.218 247.376 270.644 246.466 270.238C247.348 270.238 248.048 270.182 248.608 269.986L248.16 268.558ZM244.744 270.602C245.626 270.602 246.074 271.064 246.074 272.002C246.074 272.94 245.612 273.472 244.758 273.472C243.932 273.472 243.442 272.912 243.442 272.016C243.442 271.162 243.918 270.602 244.744 270.602Z" fill="#222222"/>
<path d="M109.004 311.41C106.778 311.41 105.63 313.16 105.63 316.296C105.63 319.446 106.778 321.21 109.004 321.21C111.23 321.21 112.378 319.446 112.378 316.296C112.378 313.16 111.23 311.41 109.004 311.41ZM109.004 312.768C110.026 312.768 110.53 313.65 110.53 316.296C110.53 318.956 110.026 319.852 109.004 319.852C107.968 319.852 107.478 318.928 107.478 316.296C107.478 313.692 107.968 312.768 109.004 312.768ZM116.287 311.41C115.139 311.41 114.173 311.816 113.333 312.614L114.229 313.608C114.831 313.048 115.405 312.782 116.119 312.782C116.959 312.782 117.505 313.244 117.505 314.014C117.505 314.938 116.875 315.442 115.993 315.442H115.489L115.279 316.716H116.035C117.085 316.716 117.715 317.108 117.715 318.228C117.715 319.208 117.057 319.81 116.049 319.81C115.307 319.81 114.719 319.53 114.089 318.9L113.095 319.852C113.823 320.734 114.859 321.21 116.147 321.21C118.303 321.21 119.563 319.922 119.563 318.312C119.563 316.856 118.597 316.128 117.421 316.016C118.541 315.722 119.269 314.98 119.269 313.804C119.269 312.502 118.219 311.41 116.287 311.41ZM125.132 311.578H123.55L120.484 313.454L121.268 314.658L123.368 313.384V321H125.132V311.578ZM134.935 311.578H133.353L130.287 313.454L131.071 314.658L133.171 313.384V321H134.935V311.578ZM139.544 311.41C138.228 311.41 137.234 311.97 136.478 312.95L137.584 313.818C138.158 313.132 138.662 312.824 139.39 312.824C140.202 312.824 140.748 313.328 140.748 314.196C140.748 315.526 139.978 316.408 136.744 319.684V321H142.61L142.806 319.586H138.774C141.7 316.814 142.596 315.652 142.596 314.056C142.596 312.586 141.476 311.41 139.544 311.41ZM146.625 311.41C145.477 311.41 144.511 311.816 143.671 312.614L144.567 313.608C145.169 313.048 145.743 312.782 146.457 312.782C147.297 312.782 147.843 313.244 147.843 314.014C147.843 314.938 147.213 315.442 146.331 315.442H145.827L145.617 316.716H146.373C147.423 316.716 148.053 317.108 148.053 318.228C148.053 319.208 147.395 319.81 146.387 319.81C145.645 319.81 145.057 319.53 144.427 318.9L143.433 319.852C144.161 320.734 145.197 321.21 146.485 321.21C148.641 321.21 149.901 319.922 149.901 318.312C149.901 316.856 148.935 316.128 147.759 316.016C148.879 315.722 149.607 314.98 149.607 313.804C149.607 312.502 148.557 311.41 146.625 311.41ZM161.35 317.472H160.216V315.106H158.662L158.48 317.472H156.324L158.718 311.97L157.206 311.396L154.462 317.612V318.844H158.466V321H160.216V318.844H161.35V317.472ZM168.067 311.578H162.593V316.506H163.867C164.301 316.282 164.651 316.184 165.099 316.184C165.953 316.184 166.597 316.632 166.597 317.934C166.597 319.152 165.939 319.824 164.889 319.824C164.105 319.824 163.517 319.502 162.999 318.914L161.963 319.88C162.691 320.678 163.615 321.21 164.945 321.21C167.059 321.21 168.445 319.866 168.445 317.934C168.445 316.016 167.325 314.896 165.757 314.896C165.281 314.896 164.791 315.008 164.315 315.246V312.908H167.843L168.067 311.578ZM173.563 314.728C172.765 314.728 172.051 315.036 171.449 315.764C171.533 313.874 172.289 312.74 173.479 312.74C173.983 312.74 174.431 312.88 174.837 313.118L175.509 312.012C174.977 311.648 174.291 311.41 173.465 311.41C171.057 311.41 169.601 313.496 169.601 316.646C169.601 319.348 170.581 321.21 172.989 321.21C174.893 321.21 176.223 319.768 176.223 317.794C176.223 315.792 175.033 314.728 173.563 314.728ZM173.003 319.88C171.925 319.88 171.491 319.012 171.449 316.996C171.883 316.408 172.471 316.03 173.115 316.03C173.913 316.03 174.417 316.478 174.417 317.822C174.417 319.054 173.941 319.88 173.003 319.88ZM186.23 311.578H180.42V312.964H184.382L181.12 320.65L182.758 321.182L186.23 312.838V311.578Z" fill="#222222"/>
<path d="M106.96 353.842C106.302 353.842 105.84 354.318 105.84 354.934C105.84 355.536 106.302 356.012 106.96 356.012C107.632 356.012 108.094 355.536 108.094 354.934C108.094 354.318 107.632 353.842 106.96 353.842ZM107.87 357.594H106.078V365H107.87V357.594ZM113.977 357.384C113.039 357.384 112.297 357.818 111.723 358.56L111.583 357.594H110.029V365H111.821V359.848C112.255 359.162 112.731 358.728 113.375 358.728C113.935 358.728 114.285 358.994 114.285 359.918V365H116.077V359.638C116.077 358.224 115.293 357.384 113.977 357.384ZM121.146 355.788C121.496 355.788 121.916 355.858 122.364 356.068L122.882 354.864C122.322 354.598 121.706 354.43 120.978 354.43C119.256 354.43 118.374 355.438 118.374 356.782V357.594H117.17V358.882H118.374V365H120.166V358.882H121.748L121.944 357.594H120.166V356.81C120.166 356.11 120.432 355.788 121.146 355.788ZM125.891 357.384C123.693 357.384 122.405 358.966 122.405 361.29C122.405 363.726 123.693 365.21 125.891 365.21C128.075 365.21 129.363 363.628 129.363 361.29C129.363 358.868 128.075 357.384 125.891 357.384ZM125.905 358.742C126.941 358.742 127.501 359.526 127.501 361.29C127.501 363.054 126.941 363.852 125.891 363.852C124.841 363.852 124.295 363.068 124.295 361.29C124.295 359.54 124.855 358.742 125.905 358.742ZM137.343 355.116C133.493 355.116 130.791 357.888 130.791 361.626C130.791 365.546 133.409 368.052 137.343 368.052C138.561 368.052 139.611 367.814 140.521 367.478L140.073 366.19C139.331 366.456 138.351 366.68 137.357 366.68C134.193 366.68 132.471 364.664 132.471 361.626C132.471 358.63 134.263 356.474 137.343 356.474C140.311 356.474 141.767 358.098 141.767 360.66C141.767 362.886 141.263 363.712 140.465 363.712C140.003 363.712 139.737 363.432 139.681 362.592V358.63C138.911 358.21 138.127 358.028 137.357 358.028C135.425 358.028 134.193 359.4 134.193 361.752C134.193 363.572 135.033 364.874 136.685 364.874C137.735 364.874 138.365 364.23 138.687 363.502C138.841 364.16 139.401 364.916 140.521 364.916C142.397 364.916 143.447 363.054 143.447 360.632C143.447 357.734 141.291 355.116 137.343 355.116ZM136.923 363.684C136.195 363.684 135.859 363.096 135.859 361.752C135.859 359.96 136.391 359.218 137.329 359.218C137.665 359.218 137.889 359.274 138.127 359.386V362.76C137.973 363.138 137.623 363.684 136.923 363.684ZM150.146 357.594H144.812V358.994H148.088L144.504 363.712V365H150.02L150.202 363.6H146.562L150.146 358.882V357.594ZM154.629 357.384C152.431 357.384 151.143 358.966 151.143 361.29C151.143 363.726 152.431 365.21 154.629 365.21C156.813 365.21 158.101 363.628 158.101 361.29C158.101 358.868 156.813 357.384 154.629 357.384ZM154.643 358.742C155.679 358.742 156.239 359.526 156.239 361.29C156.239 363.054 155.679 363.852 154.629 363.852C153.579 363.852 153.033 363.068 153.033 361.29C153.033 359.54 153.593 358.742 154.643 358.742ZM162.763 357.384C160.635 357.384 159.319 358.994 159.319 361.36C159.319 363.726 160.635 365.21 162.791 365.21C163.729 365.21 164.513 364.902 165.185 364.356L164.359 363.18C163.841 363.572 163.449 363.754 162.875 363.754C161.867 363.754 161.209 363.124 161.209 361.332C161.209 359.554 161.853 358.798 162.889 358.798C163.449 358.798 163.897 358.966 164.373 359.344L165.185 358.252C164.485 357.65 163.729 357.384 162.763 357.384ZM169.354 357.384C167.156 357.384 165.868 358.966 165.868 361.29C165.868 363.726 167.156 365.21 169.354 365.21C171.538 365.21 172.826 363.628 172.826 361.29C172.826 358.868 171.538 357.384 169.354 357.384ZM169.368 358.742C170.404 358.742 170.964 359.526 170.964 361.29C170.964 363.054 170.404 363.852 169.354 363.852C168.304 363.852 167.758 363.068 167.758 361.29C167.758 359.54 168.318 358.742 169.368 358.742ZM182.373 357.384C181.393 357.384 180.721 357.86 180.161 358.63C179.867 357.846 179.223 357.384 178.355 357.384C177.417 357.384 176.745 357.818 176.213 358.56L176.073 357.594H174.519V365H176.311V359.848C176.703 359.162 177.095 358.728 177.711 358.728C178.159 358.728 178.523 358.994 178.523 359.918V365H180.315V359.792L180.329 359.848C180.735 359.162 181.127 358.728 181.743 358.728C182.177 358.728 182.555 358.994 182.555 359.918V365H184.347V359.638C184.347 358.238 183.549 357.384 182.373 357.384ZM187.016 362.942C186.372 362.942 185.882 363.446 185.882 364.076C185.882 364.692 186.372 365.21 187.016 365.21C187.646 365.21 188.15 364.692 188.15 364.076C188.15 363.446 187.646 362.942 187.016 362.942ZM192.115 357.384C190.393 357.384 189.259 358.308 189.259 359.54C189.259 360.632 189.931 361.36 191.457 361.78C192.843 362.172 193.137 362.368 193.137 363.012C193.137 363.53 192.633 363.88 191.821 363.88C191.065 363.88 190.379 363.586 189.833 363.138L188.909 364.16C189.595 364.776 190.603 365.21 191.863 365.21C193.557 365.21 194.999 364.398 194.999 362.858C194.999 361.542 194.131 360.926 192.633 360.52C191.359 360.17 191.079 359.946 191.079 359.456C191.079 359.008 191.471 358.714 192.227 358.714C192.843 358.714 193.445 358.924 194.047 359.344L194.747 358.266C194.047 357.72 193.179 357.384 192.115 357.384ZM202.497 361.122C202.497 358.784 201.307 357.384 199.249 357.384C197.149 357.384 195.959 359.092 195.959 361.346C195.959 363.684 197.191 365.21 199.487 365.21C200.593 365.21 201.503 364.804 202.231 364.216L201.475 363.194C200.831 363.642 200.299 363.852 199.641 363.852C198.661 363.852 197.947 363.362 197.821 361.85H202.469C202.483 361.654 202.497 361.36 202.497 361.122ZM200.733 360.688H197.807C197.919 359.218 198.437 358.658 199.291 358.658C200.299 358.658 200.733 359.386 200.733 360.604V360.688Z" fill="#222222"/>
<path d="M86 262L68 270.257H77.375C77.4745 270.257 77.5698 270.296 77.6402 270.366C77.7105 270.437 77.75 270.532 77.75 270.632V280L86 262Z" stroke="#222222" stroke-width="2" stroke-linecap="round" stroke-linejoin="round"/>
<path d="M84.875 353.5H69.125C68.0895 353.5 67.25 354.339 67.25 355.375V366.625C67.25 367.661 68.0895 368.5 69.125 368.5H84.875C85.9105 368.5 86.75 367.661 86.75 366.625V355.375C86.75 354.339 85.9105 353.5 84.875 353.5Z" stroke="#222222" stroke-width="2" stroke-linecap="round" stroke-linejoin="round"/>
<path d="M70.25 356.5L77 361.75L83.75 356.5" stroke="#222222" stroke-width="2" stroke-linecap="round" stroke-linejoin="round"/>
<path d="M86.1406 321.531C85.3963 320.781 83.5934 319.687 82.7188 319.246C81.5797 318.672 81.4859 318.625 80.5906 319.29C79.9934 319.734 79.5964 320.131 78.8975 319.982C78.1986 319.832 76.6799 318.992 75.35 317.666C74.0202 316.341 73.1309 314.778 72.9814 314.081C72.8319 313.385 73.235 312.992 73.6747 312.394C74.2944 311.55 74.2475 311.409 73.7178 310.27C73.3048 309.384 72.1784 307.599 71.4256 306.858C70.6203 306.062 70.6203 306.203 70.1014 306.419C69.679 306.596 69.2737 306.812 68.8906 307.064C68.1406 307.562 67.7244 307.976 67.4333 308.598C67.1422 309.22 67.0114 310.679 68.5147 313.41C70.018 316.141 71.0727 317.537 73.2556 319.714C75.4386 321.891 77.1172 323.061 79.5711 324.437C82.6067 326.138 83.7711 325.806 84.395 325.516C85.0189 325.225 85.4347 324.812 85.9339 324.062C86.1862 323.68 86.4028 323.275 86.5808 322.853C86.7969 322.336 86.9375 322.336 86.1406 321.531Z" stroke="#222222" stroke-width="2" stroke-miterlimit="10"/>
<defs>
<filter id="filter0_d_4_15" x="0" y="0" width="498" height="481" filterUnits="userSpaceOnUse" color-interpolation-filters="sRGB">
<feFlood flood-opacity="0" result="BackgroundImageFix"/>
<feColorMatrix in="SourceAlpha" type="matrix" values="0 0 0 0 0 0 0 0 0 0 0 0 0 0 0 0 0 0 127 0" result="hardAlpha"/>
<feOffset/>
<feGaussianBlur stdDeviation="16"/>
<feColorMatrix type="matrix" values="0 0 0 0 0 0 0 0 0 0 0 0 0 0 0 0 0 0 0.1 0"/>
<feBlend mode="normal" in2="BackgroundImageFix" result="effect1_dropShadow_4_15"/>
<feBlend mode="normal" in="SourceGraphic" in2="effect1_dropShadow_4_15" result="shape"/>
</filter>
</defs>
</svg>
