<svg width="270" height="391" viewBox="0 0 270 391" fill="none" xmlns="http://www.w3.org/2000/svg">
<g filter="url(#filter0_d_3_22)">
<rect x="4" y="4" width="262" height="383" rx="3" fill="#EBEBEB"/>
<path d="M165 115H105C100.029 115 96 119.029 96 124V172C96 176.971 100.029 181 105 181H165C169.971 181 174 176.971 174 172V124C174 119.029 169.971 115 165 115Z" stroke="black" stroke-opacity="0.4" stroke-width="2" stroke-linejoin="round"/>
<path d="M150 139C153.314 139 156 136.314 156 133C156 129.686 153.314 127 150 127C146.686 127 144 129.686 144 133C144 136.314 146.686 139 150 139Z" stroke="black" stroke-opacity="0.4" stroke-width="2" stroke-miterlimit="10"/>
<path d="M144 162.961L127.001 145.994C125.92 144.912 124.466 144.285 122.937 144.24C121.408 144.194 119.919 144.735 118.776 145.75L96 166M129 181L152.126 157.874C153.184 156.814 154.599 156.188 156.095 156.119C157.591 156.049 159.058 156.541 160.209 157.499L174 169" stroke="black" stroke-opacity="0.4" stroke-width="2" stroke-linecap="round" stroke-linejoin="round"/>
<path d="M109.173 318.754H105.939V324.914C105.939 327.356 106.247 329.358 106.423 330.59L101.913 318.754H97.4251V334H100.659V328.412C100.659 325.596 100.351 323.572 100.175 322.186L104.575 334H109.173V318.754ZM113.663 316.158C112.453 316.158 111.617 317.016 111.617 318.138C111.617 319.26 112.453 320.118 113.663 320.118C114.873 320.118 115.731 319.26 115.731 318.138C115.731 317.016 114.873 316.158 113.663 316.158ZM115.423 322.318H111.947V334H115.423V322.318ZM121.632 317.302L118.156 317.676V334H121.632V317.302ZM128.848 322.318H125.306L121.742 327.62L125.24 334H129.134L125.306 327.444L128.848 322.318ZM140.137 327.928C140.137 324.144 138.091 321.944 134.747 321.944C131.205 321.944 129.291 324.716 129.291 328.214C129.291 331.866 131.271 334.374 135.165 334.374C137.057 334.374 138.553 333.67 139.719 332.746L138.289 330.81C137.277 331.514 136.441 331.844 135.495 331.844C134.043 331.844 133.053 331.272 132.833 329.182H140.071C140.115 328.83 140.137 328.302 140.137 327.928ZM136.727 327.092H132.833C132.987 325.002 133.669 324.254 134.835 324.254C136.221 324.254 136.705 325.354 136.727 326.938V327.092ZM155.449 334H159.255L154.679 318.754H150.301L145.681 334H149.421L150.213 330.722H154.657L155.449 334ZM150.829 328.104L152.435 321.372L154.041 328.104H150.829ZM162.046 316.158C160.836 316.158 160 317.016 160 318.138C160 319.26 160.836 320.118 162.046 320.118C163.256 320.118 164.114 319.26 164.114 318.138C164.114 317.016 163.256 316.158 162.046 316.158ZM163.806 322.318H160.33V334H163.806V322.318ZM172.875 321.988C171.533 321.988 170.389 322.956 169.861 324.584L169.575 322.318H166.539V334H170.015V328.214C170.389 326.432 171.005 325.354 172.435 325.354C172.831 325.354 173.117 325.42 173.491 325.508L174.063 322.142C173.667 322.032 173.315 321.988 172.875 321.988Z" fill="#222222"/>
<path d="M122.074 352.976H120.538V360.352C120.538 362.064 119.786 362.912 118.202 362.912C116.634 362.912 115.882 362.064 115.882 360.352V352.976H114.362V360.464C114.362 362.656 115.69 364.192 118.202 364.192C120.682 364.192 122.074 362.656 122.074 360.464V352.976ZM127.836 352.784C125.804 352.784 124.364 353.968 124.364 355.664C124.364 357.376 125.484 358.192 127.628 358.848C129.5 359.424 130.012 359.904 130.012 360.976C130.012 362.304 128.94 362.944 127.644 362.944C126.444 362.944 125.548 362.512 124.796 361.792L123.916 362.768C124.828 363.664 126.076 364.192 127.66 364.192C130.14 364.192 131.596 362.848 131.596 360.928C131.596 358.816 130.092 358.128 128.332 357.584C126.348 356.976 125.916 356.528 125.916 355.6C125.916 354.544 126.796 354.032 127.9 354.032C128.812 354.032 129.58 354.32 130.38 355.024L131.244 354.064C130.316 353.232 129.356 352.784 127.836 352.784ZM139.934 361.024C139.934 358.976 138.478 358.304 136.766 357.776C134.846 357.184 134.43 356.752 134.43 355.856C134.43 354.832 135.278 354.336 136.35 354.336C137.246 354.336 138.014 354.608 138.75 355.296L139.598 354.368C138.878 353.696 138.11 353.28 137.038 353.168V350.816H135.758V353.152C134.078 353.344 132.91 354.416 132.91 355.92C132.91 357.568 133.998 358.368 136.078 359.008C137.902 359.568 138.398 360.032 138.398 361.072C138.398 362.352 137.358 362.976 136.094 362.976C134.942 362.976 134.062 362.56 133.342 361.856L132.478 362.8C133.31 363.616 134.382 364.112 135.758 364.176V366.48H137.038V364.128C138.878 363.824 139.934 362.624 139.934 361.024ZM144.178 353.136C143.026 353.136 142.034 353.552 141.122 354.4L141.89 355.28C142.61 354.608 143.25 354.32 144.098 354.32C145.17 354.32 145.874 354.944 145.874 355.952C145.874 357.2 144.994 357.84 143.938 357.84H143.394L143.218 358.976H144.018C145.314 358.976 146.146 359.424 146.146 360.896C146.146 362.16 145.33 362.992 143.986 362.992C143.122 362.992 142.402 362.672 141.698 361.936L140.818 362.752C141.634 363.728 142.754 364.192 144.034 364.192C146.258 364.192 147.682 362.784 147.682 360.912C147.682 359.296 146.61 358.448 145.266 358.32C146.466 358.032 147.346 357.216 147.346 355.856C147.346 354.416 146.226 353.136 144.178 353.136ZM156.595 360.192H155.203V357.312H153.923L153.795 360.192H150.755L153.651 353.648L152.419 353.136L149.203 360.304V361.36H153.779V364H155.203V361.36H156.595V360.192Z" fill="black" fill-opacity="0.8"/>
</g>
<defs>
<filter id="filter0_d_3_22" x="0" y="0" width="270" height="391" filterUnits="userSpaceOnUse" color-interpolation-filters="sRGB">
<feFlood flood-opacity="0" result="BackgroundImageFix"/>
<feColorMatrix in="SourceAlpha" type="matrix" values="0 0 0 0 0 0 0 0 0 0 0 0 0 0 0 0 0 0 127 0" result="hardAlpha"/>
<feOffset/>
<feGaussianBlur stdDeviation="2"/>
<feColorMatrix type="matrix" values="0 0 0 0 0 0 0 0 0 0 0 0 0 0 0 0 0 0 0.08 0"/>
<feBlend mode="normal" in2="BackgroundImageFix" result="effect1_dropShadow_3_22"/>
<feBlend mode="normal" in="SourceGraphic" in2="effect1_dropShadow_3_22" result="shape"/>
</filter>
</defs>
</svg>
