<svg width="270" height="391" viewBox="0 0 270 391" fill="none" xmlns="http://www.w3.org/2000/svg">
<g filter="url(#filter0_d_3_14)">
<rect x="4" y="4" width="262" height="383" rx="3" fill="#EBEBEB"/>
<path d="M165 115H105C100.029 115 96 119.029 96 124V172C96 176.971 100.029 181 105 181H165C169.971 181 174 176.971 174 172V124C174 119.029 169.971 115 165 115Z" stroke="black" stroke-opacity="0.4" stroke-width="2" stroke-linejoin="round"/>
<path d="M150 139C153.314 139 156 136.314 156 133C156 129.686 153.314 127 150 127C146.686 127 144 129.686 144 133C144 136.314 146.686 139 150 139Z" stroke="black" stroke-opacity="0.4" stroke-width="2" stroke-miterlimit="10"/>
<path d="M144 162.961L127.001 145.994C125.92 144.912 124.466 144.285 122.937 144.24C121.408 144.194 119.919 144.735 118.776 145.75L96 166M129 181L152.126 157.874C153.184 156.814 154.599 156.188 156.095 156.119C157.591 156.049 159.058 156.541 160.209 157.499L174 169" stroke="black" stroke-opacity="0.4" stroke-width="2" stroke-linecap="round" stroke-linejoin="round"/>
<path d="M97.8812 318.754H87.6952V321.548H93.7892L87.0132 331.294V334H97.6392L98.0132 331.118H91.2592L97.8812 321.482V318.754ZM108.995 330.612V326.08C108.995 323.374 107.565 321.944 104.177 321.944C102.857 321.944 101.229 322.252 99.7771 322.802L100.547 325.09C101.735 324.694 102.879 324.474 103.627 324.474C105.035 324.474 105.585 324.892 105.585 326.278V326.784H104.397C100.877 326.784 98.9411 328.17 98.9411 330.722C98.9411 332.856 100.415 334.374 102.747 334.374C104.111 334.374 105.431 333.912 106.245 332.636C106.795 333.78 107.719 334.198 109.083 334.308L109.809 332.042C109.259 331.844 108.995 331.514 108.995 330.612ZM103.759 331.888C102.879 331.888 102.395 331.338 102.395 330.414C102.395 329.248 103.165 328.698 104.727 328.698H105.585V330.788C105.167 331.47 104.529 331.888 103.759 331.888ZM118.122 321.988C116.78 321.988 115.636 322.956 115.108 324.584L114.822 322.318H111.786V334H115.262V328.214C115.636 326.432 116.252 325.354 117.682 325.354C118.078 325.354 118.364 325.42 118.738 325.508L119.31 322.142C118.914 322.032 118.562 321.988 118.122 321.988ZM129.448 330.612V326.08C129.448 323.374 128.018 321.944 124.63 321.944C123.31 321.944 121.682 322.252 120.23 322.802L121 325.09C122.188 324.694 123.332 324.474 124.08 324.474C125.488 324.474 126.038 324.892 126.038 326.278V326.784H124.85C121.33 326.784 119.394 328.17 119.394 330.722C119.394 332.856 120.868 334.374 123.2 334.374C124.564 334.374 125.884 333.912 126.698 332.636C127.248 333.78 128.172 334.198 129.536 334.308L130.262 332.042C129.712 331.844 129.448 331.514 129.448 330.612ZM124.212 331.888C123.332 331.888 122.848 331.338 122.848 330.414C122.848 329.248 123.618 328.698 125.18 328.698H126.038V330.788C125.62 331.47 124.982 331.888 124.212 331.888ZM141.574 321.944C138.604 321.944 136.8 323.506 136.8 325.508C136.8 327.312 137.922 328.5 140.254 329.16C142.344 329.754 142.718 329.996 142.718 330.81C142.718 331.492 142.058 331.888 140.98 331.888C139.88 331.888 138.802 331.426 137.944 330.722L136.228 332.636C137.372 333.67 139.066 334.374 141.09 334.374C144.016 334.374 146.282 332.944 146.282 330.524C146.282 328.434 144.984 327.466 142.696 326.806C140.606 326.19 140.276 325.926 140.276 325.31C140.276 324.782 140.76 324.43 141.816 324.43C142.696 324.43 143.664 324.76 144.566 325.354L145.864 323.374C144.786 322.494 143.268 321.944 141.574 321.944ZM154.936 321.944C153.572 321.944 152.516 322.494 151.57 323.572V317.324L148.094 317.676V334H151.57V325.992C152.186 325.046 152.824 324.496 153.594 324.496C154.254 324.496 154.694 324.826 154.694 326.058V334H158.17V325.464C158.17 323.242 156.96 321.944 154.936 321.944ZM162.508 316.158C161.298 316.158 160.462 317.016 160.462 318.138C160.462 319.26 161.298 320.118 162.508 320.118C163.718 320.118 164.576 319.26 164.576 318.138C164.576 317.016 163.718 316.158 162.508 316.158ZM164.268 322.318H160.792V334H164.268V322.318ZM173.337 321.988C171.995 321.988 170.851 322.956 170.323 324.584L170.037 322.318H167.001V334H170.477V328.214C170.851 326.432 171.467 325.354 172.897 325.354C173.293 325.354 173.579 325.42 173.953 325.508L174.525 322.142C174.129 322.032 173.777 321.988 173.337 321.988ZM182.42 331.228C181.958 331.514 181.562 331.624 181.166 331.624C180.44 331.624 180.066 331.228 180.066 330.106V324.738H182.376L182.728 322.318H180.066V319.392L176.59 319.788V322.318H174.94V324.738H176.59V330.15C176.59 332.9 177.844 334.352 180.418 334.374C181.474 334.374 182.706 334.066 183.608 333.45L182.42 331.228Z" fill="#222222"/>
<path d="M112.386 352.976H110.85V360.352C110.85 362.064 110.098 362.912 108.514 362.912C106.946 362.912 106.194 362.064 106.194 360.352V352.976H104.674V360.464C104.674 362.656 106.002 364.192 108.514 364.192C110.994 364.192 112.386 362.656 112.386 360.464V352.976ZM118.148 352.784C116.116 352.784 114.676 353.968 114.676 355.664C114.676 357.376 115.796 358.192 117.94 358.848C119.812 359.424 120.324 359.904 120.324 360.976C120.324 362.304 119.252 362.944 117.956 362.944C116.756 362.944 115.86 362.512 115.108 361.792L114.228 362.768C115.14 363.664 116.388 364.192 117.972 364.192C120.452 364.192 121.908 362.848 121.908 360.928C121.908 358.816 120.404 358.128 118.644 357.584C116.66 356.976 116.228 356.528 116.228 355.6C116.228 354.544 117.108 354.032 118.212 354.032C119.124 354.032 119.892 354.32 120.692 355.024L121.556 354.064C120.628 353.232 119.668 352.784 118.148 352.784ZM130.247 361.024C130.247 358.976 128.791 358.304 127.079 357.776C125.159 357.184 124.743 356.752 124.743 355.856C124.743 354.832 125.591 354.336 126.663 354.336C127.559 354.336 128.327 354.608 129.063 355.296L129.911 354.368C129.191 353.696 128.423 353.28 127.351 353.168V350.816H126.071V353.152C124.391 353.344 123.223 354.416 123.223 355.92C123.223 357.568 124.311 358.368 126.391 359.008C128.215 359.568 128.711 360.032 128.711 361.072C128.711 362.352 127.671 362.976 126.407 362.976C125.255 362.976 124.375 362.56 123.655 361.856L122.791 362.8C123.623 363.616 124.695 364.112 126.071 364.176V366.48H127.351V364.128C129.191 363.824 130.247 362.624 130.247 361.024ZM135.746 353.296H134.45L131.138 355.344L131.778 356.384L134.274 354.864V364H135.746V353.296ZM141.644 353.136C139.788 353.136 138.22 354.432 138.22 356.672C138.22 358.8 139.516 360.112 141.18 360.112C142.268 360.112 143.116 359.552 143.58 358.832C143.468 361.248 141.756 362.48 139.068 363.248L139.404 364.352C143.34 363.216 145.1 361.728 145.1 357.296C145.1 354.784 143.948 353.136 141.644 353.136ZM141.484 358.96C140.444 358.96 139.708 358.24 139.708 356.704C139.708 355.168 140.428 354.304 141.676 354.304C143.004 354.304 143.66 355.216 143.612 357.632C143.084 358.448 142.396 358.96 141.484 358.96ZM147.498 361.968C146.874 361.968 146.394 362.464 146.394 363.072C146.394 363.696 146.874 364.192 147.498 364.192C148.138 364.192 148.618 363.696 148.618 363.072C148.618 362.464 148.138 361.968 147.498 361.968ZM153.582 353.136C151.726 353.136 150.158 354.432 150.158 356.672C150.158 358.8 151.454 360.112 153.118 360.112C154.206 360.112 155.054 359.552 155.518 358.832C155.406 361.248 153.694 362.48 151.006 363.248L151.342 364.352C155.278 363.216 157.038 361.728 157.038 357.296C157.038 354.784 155.886 353.136 153.582 353.136ZM153.422 358.96C152.382 358.96 151.646 358.24 151.646 356.704C151.646 355.168 152.366 354.304 153.614 354.304C154.942 354.304 155.598 355.216 155.55 357.632C155.022 358.448 154.334 358.96 153.422 358.96ZM162.308 353.136C159.908 353.136 158.724 355.104 158.724 358.656C158.724 362.208 159.908 364.192 162.308 364.192C164.708 364.192 165.892 362.208 165.892 358.656C165.892 355.12 164.708 353.136 162.308 353.136ZM162.308 354.304C163.636 354.304 164.356 355.52 164.356 358.656C164.356 361.808 163.636 363.024 162.308 363.024C160.964 363.024 160.26 361.808 160.26 358.656C160.26 355.52 160.964 354.304 162.308 354.304Z" fill="black" fill-opacity="0.8"/>
</g>
<defs>
<filter id="filter0_d_3_14" x="0" y="0" width="270" height="391" filterUnits="userSpaceOnUse" color-interpolation-filters="sRGB">
<feFlood flood-opacity="0" result="BackgroundImageFix"/>
<feColorMatrix in="SourceAlpha" type="matrix" values="0 0 0 0 0 0 0 0 0 0 0 0 0 0 0 0 0 0 127 0" result="hardAlpha"/>
<feOffset/>
<feGaussianBlur stdDeviation="2"/>
<feColorMatrix type="matrix" values="0 0 0 0 0 0 0 0 0 0 0 0 0 0 0 0 0 0 0.08 0"/>
<feBlend mode="normal" in2="BackgroundImageFix" result="effect1_dropShadow_3_14"/>
<feBlend mode="normal" in="SourceGraphic" in2="effect1_dropShadow_3_14" result="shape"/>
</filter>
</defs>
</svg>
