<svg width="270" height="391" viewBox="0 0 270 391" fill="none" xmlns="http://www.w3.org/2000/svg">
<g filter="url(#filter0_d_3_13)">
<rect x="4" y="4" width="262" height="383" rx="3" fill="#EBEBEB"/>
<path d="M165 115H105C100.029 115 96 119.029 96 124V172C96 176.971 100.029 181 105 181H165C169.971 181 174 176.971 174 172V124C174 119.029 169.971 115 165 115Z" stroke="black" stroke-opacity="0.4" stroke-width="2" stroke-linejoin="round"/>
<path d="M150 139C153.314 139 156 136.314 156 133C156 129.686 153.314 127 150 127C146.686 127 144 129.686 144 133C144 136.314 146.686 139 150 139Z" stroke="black" stroke-opacity="0.4" stroke-width="2" stroke-miterlimit="10"/>
<path d="M144 162.961L127.001 145.994C125.92 144.912 124.466 144.285 122.937 144.24C121.408 144.194 119.919 144.735 118.776 145.75L96 166M129 181L152.126 157.874C153.184 156.814 154.599 156.188 156.095 156.119C157.591 156.049 159.058 156.541 160.209 157.499L174 169" stroke="black" stroke-opacity="0.4" stroke-width="2" stroke-linecap="round" stroke-linejoin="round"/>
<path d="M91.5529 318.38C87.5049 318.38 84.2709 321.196 84.2709 326.366C84.2709 331.58 86.5809 334.374 91.2009 334.374C93.2029 334.374 95.1829 333.78 96.7229 332.768V325.222H90.9149L91.2669 327.774H93.2469V331.228C92.6089 331.58 91.9269 331.734 91.1789 331.734C89.0669 331.734 88.0109 330.37 88.0109 326.366C88.0109 322.582 89.5949 320.998 91.7289 320.998C92.9609 320.998 93.7969 321.372 94.7649 322.208L96.6569 320.25C95.4029 319.15 93.7529 318.38 91.5529 318.38ZM105.425 321.988C104.083 321.988 102.939 322.956 102.411 324.584L102.125 322.318H99.0886V334H102.565V328.214C102.939 326.432 103.555 325.354 104.985 325.354C105.381 325.354 105.667 325.42 106.041 325.508L106.613 322.142C106.217 322.032 105.865 321.988 105.425 321.988ZM117.89 327.928C117.89 324.144 115.844 321.944 112.5 321.944C108.958 321.944 107.044 324.716 107.044 328.214C107.044 331.866 109.024 334.374 112.918 334.374C114.81 334.374 116.306 333.67 117.472 332.746L116.042 330.81C115.03 331.514 114.194 331.844 113.248 331.844C111.796 331.844 110.806 331.272 110.586 329.182H117.824C117.868 328.83 117.89 328.302 117.89 327.928ZM114.48 327.092H110.586C110.74 325.002 111.422 324.254 112.588 324.254C113.974 324.254 114.458 325.354 114.48 326.938V327.092ZM130.071 327.928C130.071 324.144 128.025 321.944 124.681 321.944C121.139 321.944 119.225 324.716 119.225 328.214C119.225 331.866 121.205 334.374 125.099 334.374C126.991 334.374 128.487 333.67 129.653 332.746L128.223 330.81C127.211 331.514 126.375 331.844 125.429 331.844C123.977 331.844 122.987 331.272 122.767 329.182H130.005C130.049 328.83 130.071 328.302 130.071 327.928ZM126.661 327.092H122.767C122.921 325.002 123.603 324.254 124.769 324.254C126.155 324.254 126.639 325.354 126.661 326.938V327.092ZM138.909 321.944C137.457 321.944 136.335 322.538 135.345 323.704L135.103 322.318H132.067V334H135.543V326.014C136.159 325.046 136.797 324.496 137.567 324.496C138.249 324.496 138.667 324.826 138.667 326.058V334H142.143V325.464C142.143 323.242 140.933 321.944 138.909 321.944ZM156.211 318.38C152.295 318.38 149.347 321.24 149.347 326.344C149.347 331.558 152.141 334.374 156.321 334.374C158.433 334.374 160.083 333.428 161.095 332.416L159.467 330.304C158.587 330.986 157.707 331.58 156.497 331.58C154.473 331.58 153.109 330.018 153.109 326.344C153.109 322.604 154.495 321.042 156.431 321.042C157.487 321.042 158.345 321.438 159.159 322.142L160.919 320.052C159.665 318.996 158.257 318.38 156.211 318.38ZM171.901 330.612V326.08C171.901 323.374 170.471 321.944 167.083 321.944C165.763 321.944 164.135 322.252 162.683 322.802L163.453 325.09C164.641 324.694 165.785 324.474 166.533 324.474C167.941 324.474 168.491 324.892 168.491 326.278V326.784H167.303C163.783 326.784 161.847 328.17 161.847 330.722C161.847 332.856 163.321 334.374 165.653 334.374C167.017 334.374 168.337 333.912 169.151 332.636C169.701 333.78 170.625 334.198 171.989 334.308L172.715 332.042C172.165 331.844 171.901 331.514 171.901 330.612ZM166.665 331.888C165.785 331.888 165.301 331.338 165.301 330.414C165.301 329.248 166.071 328.698 167.633 328.698H168.491V330.788C168.073 331.47 167.435 331.888 166.665 331.888ZM181.226 321.944C180.148 321.944 178.894 322.406 177.926 323.616L177.75 322.318H174.692V338.884L178.168 338.51V333.164C178.894 333.978 179.84 334.374 181.006 334.374C183.888 334.374 185.648 331.734 185.648 328.126C185.648 324.342 184.306 321.944 181.226 321.944ZM179.928 331.822C179.224 331.822 178.652 331.492 178.168 330.788V325.86C178.674 325.002 179.356 324.496 180.126 324.496C181.336 324.496 182.04 325.266 182.04 328.17C182.04 330.788 181.226 331.822 179.928 331.822Z" fill="#222222"/>
<path d="M122.16 352.976H120.624V360.352C120.624 362.064 119.872 362.912 118.288 362.912C116.72 362.912 115.968 362.064 115.968 360.352V352.976H114.448V360.464C114.448 362.656 115.776 364.192 118.288 364.192C120.768 364.192 122.16 362.656 122.16 360.464V352.976ZM127.922 352.784C125.89 352.784 124.45 353.968 124.45 355.664C124.45 357.376 125.57 358.192 127.714 358.848C129.586 359.424 130.098 359.904 130.098 360.976C130.098 362.304 129.026 362.944 127.73 362.944C126.53 362.944 125.634 362.512 124.882 361.792L124.002 362.768C124.914 363.664 126.162 364.192 127.746 364.192C130.226 364.192 131.682 362.848 131.682 360.928C131.682 358.816 130.178 358.128 128.418 357.584C126.434 356.976 126.002 356.528 126.002 355.6C126.002 354.544 126.882 354.032 127.986 354.032C128.898 354.032 129.666 354.32 130.466 355.024L131.33 354.064C130.402 353.232 129.442 352.784 127.922 352.784ZM140.02 361.024C140.02 358.976 138.564 358.304 136.852 357.776C134.932 357.184 134.516 356.752 134.516 355.856C134.516 354.832 135.364 354.336 136.436 354.336C137.332 354.336 138.1 354.608 138.836 355.296L139.684 354.368C138.964 353.696 138.196 353.28 137.124 353.168V350.816H135.844V353.152C134.164 353.344 132.996 354.416 132.996 355.92C132.996 357.568 134.084 358.368 136.164 359.008C137.988 359.568 138.484 360.032 138.484 361.072C138.484 362.352 137.444 362.976 136.18 362.976C135.028 362.976 134.148 362.56 133.428 361.856L132.564 362.8C133.396 363.616 134.468 364.112 135.844 364.176V366.48H137.124V364.128C138.964 363.824 140.02 362.624 140.02 361.024ZM144.312 353.136C142.968 353.136 141.928 353.68 141.064 354.752L142.056 355.52C142.744 354.704 143.336 354.352 144.232 354.352C145.272 354.352 145.992 355.008 145.992 356.128C145.992 357.872 145.064 358.896 141.288 362.832V364H147.608L147.784 362.768H142.968C146.248 359.488 147.528 358.064 147.528 356.064C147.528 354.4 146.28 353.136 144.312 353.136ZM152.73 353.136C150.874 353.136 149.306 354.432 149.306 356.672C149.306 358.8 150.602 360.112 152.266 360.112C153.354 360.112 154.202 359.552 154.666 358.832C154.554 361.248 152.842 362.48 150.154 363.248L150.49 364.352C154.426 363.216 156.186 361.728 156.186 357.296C156.186 354.784 155.034 353.136 152.73 353.136ZM152.57 358.96C151.53 358.96 150.794 358.24 150.794 356.704C150.794 355.168 151.514 354.304 152.762 354.304C154.09 354.304 154.746 355.216 154.698 357.632C154.17 358.448 153.482 358.96 152.57 358.96Z" fill="black" fill-opacity="0.8"/>
</g>
<defs>
<filter id="filter0_d_3_13" x="0" y="0" width="270" height="391" filterUnits="userSpaceOnUse" color-interpolation-filters="sRGB">
<feFlood flood-opacity="0" result="BackgroundImageFix"/>
<feColorMatrix in="SourceAlpha" type="matrix" values="0 0 0 0 0 0 0 0 0 0 0 0 0 0 0 0 0 0 127 0" result="hardAlpha"/>
<feOffset/>
<feGaussianBlur stdDeviation="2"/>
<feColorMatrix type="matrix" values="0 0 0 0 0 0 0 0 0 0 0 0 0 0 0 0 0 0 0.08 0"/>
<feBlend mode="normal" in2="BackgroundImageFix" result="effect1_dropShadow_3_13"/>
<feBlend mode="normal" in="SourceGraphic" in2="effect1_dropShadow_3_13" result="shape"/>
</filter>
</defs>
</svg>
