<svg width="270" height="391" viewBox="0 0 270 391" fill="none" xmlns="http://www.w3.org/2000/svg">
<g filter="url(#filter0_d_3_30)">
<rect x="4" y="4" width="262" height="383" rx="3" fill="#EBEBEB"/>
<path d="M165 115H105C100.029 115 96 119.029 96 124V172C96 176.971 100.029 181 105 181H165C169.971 181 174 176.971 174 172V124C174 119.029 169.971 115 165 115Z" stroke="black" stroke-opacity="0.4" stroke-width="2" stroke-linejoin="round"/>
<path d="M150 139C153.314 139 156 136.314 156 133C156 129.686 153.314 127 150 127C146.686 127 144 129.686 144 133C144 136.314 146.686 139 150 139Z" stroke="black" stroke-opacity="0.4" stroke-width="2" stroke-miterlimit="10"/>
<path d="M144 162.961L127.001 145.994C125.92 144.912 124.466 144.285 122.937 144.24C121.408 144.194 119.919 144.735 118.776 145.75L96 166M129 181L152.126 157.874C153.184 156.814 154.599 156.188 156.095 156.119C157.591 156.049 159.058 156.541 160.209 157.499L174 169" stroke="black" stroke-opacity="0.4" stroke-width="2" stroke-linecap="round" stroke-linejoin="round"/>
<path d="M93.3928 318.754H90.1588V324.914C90.1588 327.356 90.4668 329.358 90.6428 330.59L86.1328 318.754H81.6448V334H84.8788V328.412C84.8788 325.596 84.5708 323.572 84.3948 322.186L88.7948 334H93.3928V318.754ZM106.353 327.928C106.353 324.144 104.307 321.944 100.963 321.944C97.4207 321.944 95.5067 324.716 95.5067 328.214C95.5067 331.866 97.4867 334.374 101.381 334.374C103.273 334.374 104.769 333.67 105.935 332.746L104.505 330.81C103.493 331.514 102.657 331.844 101.711 331.844C100.259 331.844 99.2687 331.272 99.0487 329.182H106.287C106.331 328.83 106.353 328.302 106.353 327.928ZM102.943 327.092H99.0487C99.2027 325.002 99.8847 324.254 101.051 324.254C102.437 324.254 102.921 325.354 102.943 326.938V327.092ZM114.684 321.988C113.342 321.988 112.198 322.956 111.67 324.584L111.384 322.318H108.348V334H111.824V328.214C112.198 326.432 112.814 325.354 114.244 325.354C114.64 325.354 114.926 325.42 115.3 325.508L115.872 322.142C115.476 322.032 115.124 321.988 114.684 321.988ZM123.96 317.302V323.044C123.278 322.362 122.332 321.944 121.254 321.944C118.24 321.944 116.414 324.518 116.414 328.126C116.414 331.91 117.888 334.374 120.836 334.374C122.442 334.374 123.498 333.604 124.18 332.636L124.356 334H127.436V317.676L123.96 317.302ZM121.958 331.822C120.814 331.822 120.022 331.052 120.022 328.148C120.022 325.53 120.88 324.474 122.156 324.474C122.926 324.474 123.432 324.848 123.96 325.464V330.502C123.41 331.382 122.772 331.822 121.958 331.822ZM141.536 331.228C141.074 331.514 140.678 331.624 140.282 331.624C139.556 331.624 139.182 331.228 139.182 330.106V324.738H141.492L141.844 322.318H139.182V319.392L135.706 319.788V322.318H134.056V324.738H135.706V330.15C135.706 332.9 136.96 334.352 139.534 334.374C140.59 334.374 141.822 334.066 142.724 333.45L141.536 331.228ZM147.976 321.944C145.006 321.944 143.202 323.506 143.202 325.508C143.202 327.312 144.324 328.5 146.656 329.16C148.746 329.754 149.12 329.996 149.12 330.81C149.12 331.492 148.46 331.888 147.382 331.888C146.282 331.888 145.204 331.426 144.346 330.722L142.63 332.636C143.774 333.67 145.468 334.374 147.492 334.374C150.418 334.374 152.684 332.944 152.684 330.524C152.684 328.434 151.386 327.466 149.098 326.806C147.008 326.19 146.678 325.926 146.678 325.31C146.678 324.782 147.162 324.43 148.218 324.43C149.098 324.43 150.066 324.76 150.968 325.354L152.266 323.374C151.188 322.494 149.67 321.944 147.976 321.944ZM161.339 321.944C159.975 321.944 158.919 322.494 157.973 323.572V317.324L154.497 317.676V334H157.973V325.992C158.589 325.046 159.227 324.496 159.997 324.496C160.657 324.496 161.097 324.826 161.097 326.058V334H164.573V325.464C164.573 323.242 163.363 321.944 161.339 321.944ZM168.91 316.158C167.7 316.158 166.864 317.016 166.864 318.138C166.864 319.26 167.7 320.118 168.91 320.118C170.12 320.118 170.978 319.26 170.978 318.138C170.978 317.016 170.12 316.158 168.91 316.158ZM170.67 322.318H167.194V334H170.67V322.318ZM179.739 321.988C178.397 321.988 177.253 322.956 176.725 324.584L176.439 322.318H173.403V334H176.879V328.214C177.253 326.432 177.869 325.354 179.299 325.354C179.695 325.354 179.981 325.42 180.355 325.508L180.927 322.142C180.531 322.032 180.179 321.988 179.739 321.988ZM188.823 331.228C188.361 331.514 187.965 331.624 187.569 331.624C186.843 331.624 186.469 331.228 186.469 330.106V324.738H188.779L189.131 322.318H186.469V319.392L182.993 319.788V322.318H181.343V324.738H182.993V330.15C182.993 332.9 184.247 334.352 186.821 334.374C187.877 334.374 189.109 334.066 190.011 333.45L188.823 331.228Z" fill="#222222"/>
<path d="M116.027 352.976H114.491V360.352C114.491 362.064 113.739 362.912 112.155 362.912C110.587 362.912 109.835 362.064 109.835 360.352V352.976H108.315V360.464C108.315 362.656 109.643 364.192 112.155 364.192C114.635 364.192 116.027 362.656 116.027 360.464V352.976ZM121.789 352.784C119.757 352.784 118.317 353.968 118.317 355.664C118.317 357.376 119.437 358.192 121.581 358.848C123.453 359.424 123.965 359.904 123.965 360.976C123.965 362.304 122.893 362.944 121.597 362.944C120.397 362.944 119.501 362.512 118.749 361.792L117.869 362.768C118.781 363.664 120.029 364.192 121.613 364.192C124.093 364.192 125.549 362.848 125.549 360.928C125.549 358.816 124.045 358.128 122.285 357.584C120.301 356.976 119.869 356.528 119.869 355.6C119.869 354.544 120.749 354.032 121.853 354.032C122.765 354.032 123.533 354.32 124.333 355.024L125.197 354.064C124.269 353.232 123.309 352.784 121.789 352.784ZM133.887 361.024C133.887 358.976 132.431 358.304 130.719 357.776C128.799 357.184 128.383 356.752 128.383 355.856C128.383 354.832 129.231 354.336 130.303 354.336C131.199 354.336 131.967 354.608 132.703 355.296L133.551 354.368C132.831 353.696 132.063 353.28 130.991 353.168V350.816H129.711V353.152C128.031 353.344 126.863 354.416 126.863 355.92C126.863 357.568 127.951 358.368 130.031 359.008C131.855 359.568 132.351 360.032 132.351 361.072C132.351 362.352 131.311 362.976 130.047 362.976C128.895 362.976 128.015 362.56 127.295 361.856L126.431 362.8C127.263 363.616 128.335 364.112 129.711 364.176V366.48H130.991V364.128C132.831 363.824 133.887 362.624 133.887 361.024ZM138.519 353.136C136.663 353.136 135.095 354.432 135.095 356.672C135.095 358.8 136.391 360.112 138.055 360.112C139.143 360.112 139.991 359.552 140.455 358.832C140.343 361.248 138.631 362.48 135.943 363.248L136.279 364.352C140.215 363.216 141.975 361.728 141.975 357.296C141.975 354.784 140.823 353.136 138.519 353.136ZM138.359 358.96C137.319 358.96 136.583 358.24 136.583 356.704C136.583 355.168 137.303 354.304 138.551 354.304C139.879 354.304 140.535 355.216 140.487 357.632C139.959 358.448 139.271 358.96 138.359 358.96ZM144.373 361.968C143.749 361.968 143.269 362.464 143.269 363.072C143.269 363.696 143.749 364.192 144.373 364.192C145.013 364.192 145.493 363.696 145.493 363.072C145.493 362.464 145.013 361.968 144.373 361.968ZM150.457 353.136C148.601 353.136 147.033 354.432 147.033 356.672C147.033 358.8 148.329 360.112 149.993 360.112C151.081 360.112 151.929 359.552 152.393 358.832C152.281 361.248 150.569 362.48 147.881 363.248L148.217 364.352C152.153 363.216 153.913 361.728 153.913 357.296C153.913 354.784 152.761 353.136 150.457 353.136ZM150.297 358.96C149.257 358.96 148.521 358.24 148.521 356.704C148.521 355.168 149.241 354.304 150.489 354.304C151.817 354.304 152.473 355.216 152.425 357.632C151.897 358.448 151.209 358.96 150.297 358.96ZM158.863 353.136C157.007 353.136 155.439 354.432 155.439 356.672C155.439 358.8 156.735 360.112 158.399 360.112C159.487 360.112 160.335 359.552 160.799 358.832C160.687 361.248 158.975 362.48 156.287 363.248L156.623 364.352C160.559 363.216 162.319 361.728 162.319 357.296C162.319 354.784 161.167 353.136 158.863 353.136ZM158.703 358.96C157.663 358.96 156.927 358.24 156.927 356.704C156.927 355.168 157.647 354.304 158.895 354.304C160.223 354.304 160.879 355.216 160.831 357.632C160.303 358.448 159.615 358.96 158.703 358.96Z" fill="black" fill-opacity="0.8"/>
</g>
<defs>
<filter id="filter0_d_3_30" x="0" y="0" width="270" height="391" filterUnits="userSpaceOnUse" color-interpolation-filters="sRGB">
<feFlood flood-opacity="0" result="BackgroundImageFix"/>
<feColorMatrix in="SourceAlpha" type="matrix" values="0 0 0 0 0 0 0 0 0 0 0 0 0 0 0 0 0 0 127 0" result="hardAlpha"/>
<feOffset/>
<feGaussianBlur stdDeviation="2"/>
<feColorMatrix type="matrix" values="0 0 0 0 0 0 0 0 0 0 0 0 0 0 0 0 0 0 0.08 0"/>
<feBlend mode="normal" in2="BackgroundImageFix" result="effect1_dropShadow_3_30"/>
<feBlend mode="normal" in="SourceGraphic" in2="effect1_dropShadow_3_30" result="shape"/>
</filter>
</defs>
</svg>
